STARTFONT 2.1
FONT -rupert-DungGeunMo-Regular-R-Normal--16-160-75-75-C-160-ISO10646-1
SIZE 16 75 75
FONTBOUNDINGBOX 16 16 0 0
STARTPROPERTIES 4
FONT_ASCENT 16
FONT_DESCENT 0
DEFAULT_CHAR 32
CHARSET_REGISTRY "ISO10646"
ENDPROPERTIES
CHARS 464
STARTCHAR uni1100
ENCODING 4352
SWIDTH 992 0
DWIDTH 16 0
BBX 16 16 0 0
BITMAP
0000
0000
0000
0000
0000
0000
1FF0
0030
0030
0030
0030
0000
0000
0000
0000
0000
ENDCHAR
STARTCHAR uni1101
ENCODING 4353
SWIDTH 992 0
DWIDTH 16 0
BBX 16 16 0 0
BITMAP
0000
0000
0000
0000
0000
0000
1EF0
0630
0630
0630
0630
0000
0000
0000
0000
0000
ENDCHAR
STARTCHAR uni1102
ENCODING 4354
SWIDTH 992 0
DWIDTH 16 0
BBX 16 16 0 0
BITMAP
0000
0000
0000
0000
0000
0000
1C00
0C00
0C00
0C00
0FF8
0000
0000
0000
0000
0000
ENDCHAR
STARTCHAR uni1103
ENCODING 4355
SWIDTH 992 0
DWIDTH 16 0
BBX 16 16 0 0
BITMAP
0000
0000
0000
0000
0000
0000
1FF8
0C00
0C00
0C00
0FF8
0000
0000
0000
0000
0000
ENDCHAR
STARTCHAR uni1104
ENCODING 4356
SWIDTH 992 0
DWIDTH 16 0
BBX 16 16 0 0
BITMAP
0000
0000
0000
0000
0000
0000
1F78
0C60
0C60
0C60
0F78
0000
0000
0000
0000
0000
ENDCHAR
STARTCHAR uni1105
ENCODING 4357
SWIDTH 992 0
DWIDTH 16 0
BBX 16 16 0 0
BITMAP
0000
0000
0000
0000
0000
0000
1FF0
0030
1FF0
1800
1FF0
0000
0000
0000
0000
0000
ENDCHAR
STARTCHAR uni1106
ENCODING 4358
SWIDTH 992 0
DWIDTH 16 0
BBX 16 16 0 0
BITMAP
0000
0000
0000
0000
0000
0000
1FF8
0C18
0C18
0C18
0FF8
0000
0000
0000
0000
0000
ENDCHAR
STARTCHAR uni1107
ENCODING 4359
SWIDTH 992 0
DWIDTH 16 0
BBX 16 16 0 0
BITMAP
0000
0000
0000
0000
0000
0000
1C18
0C18
0FF8
0C18
0FF8
0000
0000
0000
0000
0000
ENDCHAR
STARTCHAR uni1108
ENCODING 4360
SWIDTH 992 0
DWIDTH 16 0
BBX 16 16 0 0
BITMAP
0000
0000
0000
0000
0000
0000
1DB0
0DB0
0FF0
0DB0
0FF0
0000
0000
0000
0000
0000
ENDCHAR
STARTCHAR uni1109
ENCODING 4361
SWIDTH 992 0
DWIDTH 16 0
BBX 16 16 0 0
BITMAP
0000
0000
0000
0000
0000
0000
0180
03C0
0660
0C30
1818
0000
0000
0000
0000
0000
ENDCHAR
STARTCHAR uni110A
ENCODING 4362
SWIDTH 992 0
DWIDTH 16 0
BBX 16 16 0 0
BITMAP
0000
0000
0000
0000
0000
0440
0440
0EE0
0AA0
1BB0
1110
0000
0000
0000
0000
0000
ENDCHAR
STARTCHAR uni110B
ENCODING 4363
SWIDTH 992 0
DWIDTH 16 0
BBX 16 16 0 0
BITMAP
0000
0000
0000
0000
0000
03C0
0660
0C30
0C30
0C30
0660
03C0
0000
0000
0000
0000
ENDCHAR
STARTCHAR uni110C
ENCODING 4364
SWIDTH 992 0
DWIDTH 16 0
BBX 16 16 0 0
BITMAP
0000
0000
0000
0000
0000
0000
0FF0
0180
03C0
0660
0C30
0810
0000
0000
0000
0000
ENDCHAR
STARTCHAR uni110D
ENCODING 4365
SWIDTH 992 0
DWIDTH 16 0
BBX 16 16 0 0
BITMAP
0000
0000
0000
0000
0000
0000
0FF0
0660
07E0
0DB0
0910
0000
0000
0000
0000
0000
ENDCHAR
STARTCHAR uni110E
ENCODING 4366
SWIDTH 992 0
DWIDTH 16 0
BBX 16 16 0 0
BITMAP
0000
0000
0000
0000
0000
0180
0180
0FF0
03C0
0660
0C30
0810
0000
0000
0000
0000
ENDCHAR
STARTCHAR uni110F
ENCODING 4367
SWIDTH 992 0
DWIDTH 16 0
BBX 16 16 0 0
BITMAP
0000
0000
0000
0000
0000
0000
1FF0
0030
1FF0
0030
0030
0000
0000
0000
0000
0000
ENDCHAR
STARTCHAR uni1110
ENCODING 4368
SWIDTH 992 0
DWIDTH 16 0
BBX 16 16 0 0
BITMAP
0000
0000
0000
0000
0000
0000
1FF8
0C00
0FF8
0C00
0FF8
0000
0000
0000
0000
0000
ENDCHAR
STARTCHAR uni1111
ENCODING 4369
SWIDTH 992 0
DWIDTH 16 0
BBX 16 16 0 0
BITMAP
0000
0000
0000
0000
0000
0000
1FF8
0660
0660
0660
1FF8
0000
0000
0000
0000
0000
ENDCHAR
STARTCHAR uni1112
ENCODING 4370
SWIDTH 992 0
DWIDTH 16 0
BBX 16 16 0 0
BITMAP
0000
0000
0000
0000
0000
0180
0180
1FF8
03C0
0660
0660
03C0
0000
0000
0000
0000
ENDCHAR
STARTCHAR uni1113
ENCODING 4371
SWIDTH 992 0
DWIDTH 16 0
BBX 16 16 0 0
BITMAP
0000
0000
0000
0000
0000
0000
18F0
1830
1830
1830
1E30
0000
0000
0000
0000
0000
ENDCHAR
STARTCHAR uni1114
ENCODING 4372
SWIDTH 992 0
DWIDTH 16 0
BBX 16 16 0 0
BITMAP
0000
0000
0000
0000
0000
0000
0CC0
0CC0
0CC0
0CC0
0FF0
0000
0000
0000
0000
0000
ENDCHAR
STARTCHAR uni1115
ENCODING 4373
SWIDTH 992 0
DWIDTH 16 0
BBX 16 16 0 0
BITMAP
0000
0000
0000
0000
0000
0000
0CF0
0CC0
0CC0
0CC0
0FF0
0000
0000
0000
0000
0000
ENDCHAR
STARTCHAR uni1116
ENCODING 4374
SWIDTH 992 0
DWIDTH 16 0
BBX 16 16 0 0
BITMAP
0000
0000
0000
0000
0000
0000
19B0
19B0
19F0
19B0
1DF0
0000
0000
0000
0000
0000
ENDCHAR
STARTCHAR uni1117
ENCODING 4375
SWIDTH 992 0
DWIDTH 16 0
BBX 16 16 0 0
BITMAP
0000
0000
0000
0000
0000
0000
0EF0
0C30
0C30
0C30
0F30
0000
0000
0000
0000
0000
ENDCHAR
STARTCHAR uni1118
ENCODING 4376
SWIDTH 992 0
DWIDTH 16 0
BBX 16 16 0 0
BITMAP
0000
0000
0000
0000
0000
0000
1EC0
06C0
1EC0
18C0
1FF0
0000
0000
0000
0000
0000
ENDCHAR
STARTCHAR uni1119
ENCODING 4377
SWIDTH 992 0
DWIDTH 16 0
BBX 16 16 0 0
BITMAP
0000
0000
0000
0000
0000
0000
0FF0
0330
0FF0
0CC0
0FF0
0000
0000
0000
0000
0000
ENDCHAR
STARTCHAR uni111A
ENCODING 4378
SWIDTH 992 0
DWIDTH 16 0
BBX 16 16 0 0
BITMAP
0000
0000
0000
0000
0000
0000
1E80
07F0
1F60
1B60
1DC0
0000
0000
0000
0000
0000
ENDCHAR
STARTCHAR uni111B
ENCODING 4379
SWIDTH 992 0
DWIDTH 16 0
BBX 16 16 0 0
BITMAP
0000
0000
0000
0000
0000
0FF0
0030
0FF0
0C00
0FF0
0660
03C0
0000
0000
0000
0000
ENDCHAR
STARTCHAR uni111C
ENCODING 4380
SWIDTH 992 0
DWIDTH 16 0
BBX 16 16 0 0
BITMAP
0000
0000
0000
0000
0000
0000
1ED0
1AD0
1AF0
1AD0
1EF0
0000
0000
0000
0000
0000
ENDCHAR
STARTCHAR uni111D
ENCODING 4381
SWIDTH 992 0
DWIDTH 16 0
BBX 16 16 0 0
BITMAP
0000
0000
0000
0000
0000
0000
0FF0
0C30
0FF0
03C0
0660
03C0
0000
0000
0000
0000
ENDCHAR
STARTCHAR uni111E
ENCODING 4382
SWIDTH 992 0
DWIDTH 16 0
BBX 16 16 0 0
BITMAP
0000
0000
0000
0000
0000
0000
0DF0
0D30
0F30
0D30
0F30
0000
0000
0000
0000
0000
ENDCHAR
STARTCHAR uni111F
ENCODING 4383
SWIDTH 992 0
DWIDTH 16 0
BBX 16 16 0 0
BITMAP
0000
0000
0000
0000
0000
0000
1AC0
1AC0
1EC0
1AC0
1EF0
0000
0000
0000
0000
0000
ENDCHAR
STARTCHAR uni1120
ENCODING 4384
SWIDTH 992 0
DWIDTH 16 0
BBX 16 16 0 0
BITMAP
0000
0000
0000
0000
0000
0000
1AF0
1AC0
1EC0
1AC0
1EF0
0000
0000
0000
0000
0000
ENDCHAR
STARTCHAR uni1121
ENCODING 4385
SWIDTH 992 0
DWIDTH 16 0
BBX 16 16 0 0
BITMAP
0000
0000
0000
0000
0000
0000
1A80
1A80
1FC0
1B60
1E20
0000
0000
0000
0000
0000
ENDCHAR
STARTCHAR uni1122
ENCODING 4386
SWIDTH 992 0
DWIDTH 16 0
BBX 16 16 0 0
BITMAP
0000
0000
0000
0000
0000
0000
2AF0
2A30
3A30
2D30
3D30
0000
0000
0000
0000
0000
ENDCHAR
STARTCHAR uni1123
ENCODING 4387
SWIDTH 992 0
DWIDTH 16 0
BBX 16 16 0 0
BITMAP
0000
0000
0000
0000
0000
0000
2AF0
2AC0
3AC0
2DC0
3DF0
0000
0000
0000
0000
0000
ENDCHAR
STARTCHAR uni1124
ENCODING 4388
SWIDTH 992 0
DWIDTH 16 0
BBX 16 16 0 0
BITMAP
0000
0000
0000
0000
0000
0000
2AA0
2AA0
3AE0
2DA0
3DE0
0000
0000
0000
0000
0000
ENDCHAR
STARTCHAR uni1125
ENCODING 4389
SWIDTH 992 0
DWIDTH 16 0
BBX 16 16 0 0
BITMAP
0000
0000
0000
0000
0000
0000
1AA0
1AA0
1FF0
1B50
1F50
0000
0000
0000
0000
0000
ENDCHAR
STARTCHAR uni1126
ENCODING 4390
SWIDTH 992 0
DWIDTH 16 0
BBX 16 16 0 0
BITMAP
0000
0000
0000
0000
0000
0000
1AF0
1AA0
1EA0
1B50
1F50
0000
0000
0000
0000
0000
ENDCHAR
STARTCHAR uni1127
ENCODING 4391
SWIDTH 992 0
DWIDTH 16 0
BBX 16 16 0 0
BITMAP
0000
0000
0000
0000
0000
0000
0DF0
0D60
0F60
0DF0
0F90
0000
0000
0000
0000
0000
ENDCHAR
STARTCHAR uni1128
ENCODING 4392
SWIDTH 992 0
DWIDTH 16 0
BBX 16 16 0 0
BITMAP
0000
0000
0000
0000
0000
0060
0D00
0DF0
0F60
0DF0
0F90
0000
0000
0000
0000
0000
ENDCHAR
STARTCHAR uni1129
ENCODING 4393
SWIDTH 992 0
DWIDTH 16 0
BBX 16 16 0 0
BITMAP
0000
0000
0000
0000
0000
0000
1AF0
1AC0
1EF0
1AC0
1EF0
0000
0000
0000
0000
0000
ENDCHAR
STARTCHAR uni112A
ENCODING 4394
SWIDTH 992 0
DWIDTH 16 0
BBX 16 16 0 0
BITMAP
0000
0000
0000
0000
0000
0000
1AF8
1A50
1E50
1A50
1EF8
0000
0000
0000
0000
0000
ENDCHAR
STARTCHAR uni112B
ENCODING 4395
SWIDTH 992 0
DWIDTH 16 0
BBX 16 16 0 0
BITMAP
0000
0000
0000
0000
0000
0C30
0FF0
0C30
0FF0
0660
0660
03C0
0000
0000
0000
0000
ENDCHAR
STARTCHAR uni112C
ENCODING 4396
SWIDTH 992 0
DWIDTH 16 0
BBX 16 16 0 0
BITMAP
0000
0000
0000
0000
0000
1990
1FF0
1990
1FF0
0C60
0C60
07C0
0000
0000
0000
0000
ENDCHAR
STARTCHAR uni112D
ENCODING 4397
SWIDTH 992 0
DWIDTH 16 0
BBX 16 16 0 0
BITMAP
0000
0000
0000
0000
0000
0000
0DE0
0C60
1E60
1260
1260
0000
0000
0000
0000
0000
ENDCHAR
STARTCHAR uni112E
ENCODING 4398
SWIDTH 992 0
DWIDTH 16 0
BBX 16 16 0 0
BITMAP
0000
0000
0000
0000
0000
0000
0CC0
0CC0
1EC0
12C0
12F0
0000
0000
0000
0000
0000
ENDCHAR
STARTCHAR uni112F
ENCODING 4399
SWIDTH 992 0
DWIDTH 16 0
BBX 16 16 0 0
BITMAP
0000
0000
0000
0000
0000
0000
0CF0
0CC0
1EC0
12C0
12F0
0000
0000
0000
0000
0000
ENDCHAR
STARTCHAR uni1130
ENCODING 4400
SWIDTH 992 0
DWIDTH 16 0
BBX 16 16 0 0
BITMAP
0000
0000
0000
0000
0000
0000
0CF0
0C30
1EF0
12C0
12F0
0000
0000
0000
0000
0000
ENDCHAR
STARTCHAR uni1131
ENCODING 4401
SWIDTH 992 0
DWIDTH 16 0
BBX 16 16 0 0
BITMAP
0000
0000
0000
0000
0000
0000
19F0
19B0
3DB0
25B0
25F0
0000
0000
0000
0000
0000
ENDCHAR
STARTCHAR uni1132
ENCODING 4402
SWIDTH 992 0
DWIDTH 16 0
BBX 16 16 0 0
BITMAP
0000
0000
0000
0000
0000
0000
0CD0
0CD0
1EF0
12D0
12F0
0000
0000
0000
0000
0000
ENDCHAR
STARTCHAR uni1133
ENCODING 4403
SWIDTH 992 0
DWIDTH 16 0
BBX 16 16 0 0
BITMAP
0000
0000
0000
0000
0000
0000
0A80
0AF8
1F98
1698
1798
0000
0000
0000
0000
0000
ENDCHAR
STARTCHAR uni1134
ENCODING 4404
SWIDTH 992 0
DWIDTH 16 0
BBX 16 16 0 0
BITMAP
0000
0000
0000
0000
0000
0000
06A0
06A0
0FF0
0D50
0D50
0000
0000
0000
0000
0000
ENDCHAR
STARTCHAR uni1135
ENCODING 4405
SWIDTH 992 0
DWIDTH 16 0
BBX 16 16 0 0
BITMAP
0000
0000
0000
0000
0000
0000
0CE0
0DB0
1FB0
1BB0
1AE0
0000
0000
0000
0000
0000
ENDCHAR
STARTCHAR uni1136
ENCODING 4406
SWIDTH 992 0
DWIDTH 16 0
BBX 16 16 0 0
BITMAP
0000
0000
0000
0000
0000
0000
06F0
0660
0F60
0DF0
0D90
0000
0000
0000
0000
0000
ENDCHAR
STARTCHAR uni1137
ENCODING 4407
SWIDTH 992 0
DWIDTH 16 0
BBX 16 16 0 0
BITMAP
0000
0000
0000
0000
0000
0060
0600
06F0
0F60
0DF0
0D90
0000
0000
0000
0000
0000
ENDCHAR
STARTCHAR uni1138
ENCODING 4408
SWIDTH 992 0
DWIDTH 16 0
BBX 16 16 0 0
BITMAP
0000
0000
0000
0000
0000
0000
06F0
0630
0FF0
0D30
0D30
0000
0000
0000
0000
0000
ENDCHAR
STARTCHAR uni1139
ENCODING 4409
SWIDTH 992 0
DWIDTH 16 0
BBX 16 16 0 0
BITMAP
0000
0000
0000
0000
0000
0000
0CF0
0CC0
1EF0
1AC0
1AF0
0000
0000
0000
0000
0000
ENDCHAR
STARTCHAR uni113A
ENCODING 4410
SWIDTH 992 0
DWIDTH 16 0
BBX 16 16 0 0
BITMAP
0000
0000
0000
0000
0000
0000
0DF0
0CA0
1EA0
1AA0
1BF0
0000
0000
0000
0000
0000
ENDCHAR
STARTCHAR uni113B
ENCODING 4411
SWIDTH 992 0
DWIDTH 16 0
BBX 16 16 0 0
BITMAP
0000
0000
0000
0000
0000
0040
0DF0
0CE0
1FB0
1BB0
1AE0
0000
0000
0000
0000
0000
ENDCHAR
STARTCHAR uni113C
ENCODING 4412
SWIDTH 992 0
DWIDTH 16 0
BBX 16 16 0 0
BITMAP
0000
0000
0000
0000
0000
0000
0180
03C0
0760
0E30
0C00
0000
0000
0000
0000
0000
ENDCHAR
STARTCHAR uni113D
ENCODING 4413
SWIDTH 992 0
DWIDTH 16 0
BBX 16 16 0 0
BITMAP
0000
0000
0000
0000
0000
0000
0360
0360
06D0
06D0
0D80
0D80
0000
0000
0000
0000
ENDCHAR
STARTCHAR uni113E
ENCODING 4414
SWIDTH 992 0
DWIDTH 16 0
BBX 16 16 0 0
BITMAP
0000
0000
0000
0000
0000
0000
0180
03C0
06E0
0C70
0030
0000
0000
0000
0000
0000
ENDCHAR
STARTCHAR uni113F
ENCODING 4415
SWIDTH 992 0
DWIDTH 16 0
BBX 16 16 0 0
BITMAP
0000
0000
0000
0000
0000
0000
06C0
06C0
0B60
0B60
01B0
01B0
0000
0000
0000
0000
ENDCHAR
STARTCHAR uni1140
ENCODING 4416
SWIDTH 992 0
DWIDTH 16 0
BBX 16 16 0 0
BITMAP
0000
0000
0000
0000
0000
0000
0180
03C0
0660
0C30
0FF0
0000
0000
0000
0000
0000
ENDCHAR
STARTCHAR uni1141
ENCODING 4417
SWIDTH 992 0
DWIDTH 16 0
BBX 16 16 0 0
BITMAP
0000
0000
0000
0000
0000
0000
0EF0
1B30
1B30
1B30
0E30
0000
0000
0000
0000
0000
ENDCHAR
STARTCHAR uni1142
ENCODING 4418
SWIDTH 992 0
DWIDTH 16 0
BBX 16 16 0 0
BITMAP
0000
0000
0000
0000
0000
0000
0E78
1B60
1B60
1B60
0E78
0000
0000
0000
0000
0000
ENDCHAR
STARTCHAR uni1143
ENCODING 4419
SWIDTH 992 0
DWIDTH 16 0
BBX 16 16 0 0
BITMAP
0000
0000
0000
0000
0000
0000
0E78
1B68
1B68
1B68
0E78
0000
0000
0000
0000
0000
ENDCHAR
STARTCHAR uni1144
ENCODING 4420
SWIDTH 992 0
DWIDTH 16 0
BBX 16 16 0 0
BITMAP
0000
0000
0000
0000
0000
0000
0ED8
1BD8
1BF8
1BD8
0EF8
0000
0000
0000
0000
0000
ENDCHAR
STARTCHAR uni1145
ENCODING 4421
SWIDTH 992 0
DWIDTH 16 0
BBX 16 16 0 0
BITMAP
0000
0000
0000
0000
0000
0000
0E30
1B30
1B78
1B68
0E68
0000
0000
0000
0000
0000
ENDCHAR
STARTCHAR uni1146
ENCODING 4422
SWIDTH 992 0
DWIDTH 16 0
BBX 16 16 0 0
BITMAP
0000
0000
0000
0000
0000
0000
1C00
3660
36F0
3798
1DF8
0000
0000
0000
0000
0000
ENDCHAR
STARTCHAR uni1147
ENCODING 4423
SWIDTH 992 0
DWIDTH 16 0
BBX 16 16 0 0
BITMAP
0000
0000
0000
0000
0000
0000
0EE0
1BB0
1BB0
1BB0
0EE0
0000
0000
0000
0000
0000
ENDCHAR
STARTCHAR uni1148
ENCODING 4424
SWIDTH 992 0
DWIDTH 16 0
BBX 16 16 0 0
BITMAP
0000
0000
0000
0000
0000
0000
0EF0
1B60
1B60
1BF0
0ED0
0000
0000
0000
0000
0000
ENDCHAR
STARTCHAR uni1149
ENCODING 4425
SWIDTH 992 0
DWIDTH 16 0
BBX 16 16 0 0
BITMAP
0000
0000
0000
0000
0000
0060
0E00
1BF0
1B60
1BF0
0ED0
0000
0000
0000
0000
0000
ENDCHAR
STARTCHAR uni114A
ENCODING 4426
SWIDTH 992 0
DWIDTH 16 0
BBX 16 16 0 0
BITMAP
0000
0000
0000
0000
0000
0000
0E78
1B60
1B78
1B60
0E78
0000
0000
0000
0000
0000
ENDCHAR
STARTCHAR uni114B
ENCODING 4427
SWIDTH 992 0
DWIDTH 16 0
BBX 16 16 0 0
BITMAP
0000
0000
0000
0000
0000
0000
0EF8
1B50
1B50
1B50
0EF8
0000
0000
0000
0000
0000
ENDCHAR
STARTCHAR uni114C
ENCODING 4428
SWIDTH 992 0
DWIDTH 16 0
BBX 16 16 0 0
BITMAP
0000
0000
0000
0000
0000
0180
0180
07E0
0C30
0C30
0C30
07E0
0000
0000
0000
0000
ENDCHAR
STARTCHAR uni114D
ENCODING 4429
SWIDTH 992 0
DWIDTH 16 0
BBX 16 16 0 0
BITMAP
0000
0000
0000
0000
0000
0000
1EE0
0DB0
0DB0
1FB0
1AE0
0000
0000
0000
0000
0000
ENDCHAR
STARTCHAR uni114E
ENCODING 4430
SWIDTH 992 0
DWIDTH 16 0
BBX 16 16 0 0
BITMAP
0000
0000
0000
0000
0000
0FF0
0180
03C0
0760
0E30
0C00
0000
0000
0000
0000
0000
ENDCHAR
STARTCHAR uni114F
ENCODING 4431
SWIDTH 992 0
DWIDTH 16 0
BBX 16 16 0 0
BITMAP
0000
0000
0000
0000
0000
0FF0
0360
0360
06D0
06D0
0D80
0D80
0000
0000
0000
0000
ENDCHAR
STARTCHAR uni1150
ENCODING 4432
SWIDTH 992 0
DWIDTH 16 0
BBX 16 16 0 0
BITMAP
0000
0000
0000
0000
0000
0000
0FF0
0180
03C0
06E0
0C70
0030
0000
0000
0000
0000
ENDCHAR
STARTCHAR uni1151
ENCODING 4433
SWIDTH 992 0
DWIDTH 16 0
BBX 16 16 0 0
BITMAP
0000
0000
0000
0000
0000
0FF0
06C0
06C0
0B60
0B60
01B0
01B0
0000
0000
0000
0000
ENDCHAR
STARTCHAR uni1152
ENCODING 4434
SWIDTH 992 0
DWIDTH 16 0
BBX 16 16 0 0
BITMAP
0000
0000
0000
0000
0000
0000
0C00
00F0
1E30
0CF0
1E30
1A30
0000
0000
0000
0000
ENDCHAR
STARTCHAR uni1153
ENCODING 4435
SWIDTH 992 0
DWIDTH 16 0
BBX 16 16 0 0
BITMAP
0000
0000
0000
0000
0000
0000
0CE0
0000
1FF8
0DB0
1FB0
1AE0
0000
0000
0000
0000
ENDCHAR
STARTCHAR uni1154
ENCODING 4436
SWIDTH 992 0
DWIDTH 16 0
BBX 16 16 0 0
BITMAP
0000
0000
0000
0000
0000
0300
1FE0
0300
0780
0EC0
1C60
1800
0000
0000
0000
0000
ENDCHAR
STARTCHAR uni1155
ENCODING 4437
SWIDTH 992 0
DWIDTH 16 0
BBX 16 16 0 0
BITMAP
0000
0000
0000
0000
0000
0180
0FF0
0180
03C0
06E0
0C70
0030
0000
0000
0000
0000
ENDCHAR
STARTCHAR uni1156
ENCODING 4438
SWIDTH 992 0
DWIDTH 16 0
BBX 16 16 0 0
BITMAP
0000
0000
0000
0000
0000
0000
1FD8
0AD8
0AF8
0AD8
1FF8
0000
0000
0000
0000
0000
ENDCHAR
STARTCHAR uni1157
ENCODING 4439
SWIDTH 992 0
DWIDTH 16 0
BBX 16 16 0 0
BITMAP
0000
0000
0000
0000
0000
1FF0
06C0
1FF0
07C0
0C60
0C60
07C0
0000
0000
0000
0000
ENDCHAR
STARTCHAR uni1158
ENCODING 4440
SWIDTH 992 0
DWIDTH 16 0
BBX 16 16 0 0
BITMAP
0000
0000
0000
0000
0000
0000
0EE0
0000
3FF8
1BB0
1BB0
0EE0
0000
0000
0000
0000
ENDCHAR
STARTCHAR uni1159
ENCODING 4441
SWIDTH 992 0
DWIDTH 16 0
BBX 16 16 0 0
BITMAP
0000
0000
0000
0000
0000
1FF0
0000
07C0
0C60
0C60
0C60
07C0
0000
0000
0000
0000
ENDCHAR
STARTCHAR uni115A
ENCODING 4442
SWIDTH 992 0
DWIDTH 16 0
BBX 16 16 0 0
BITMAP
0000
0000
0000
0000
7E00
0000
7E00
0000
7E00
0000
7E00
0000
7E00
0000
0000
0000
ENDCHAR
STARTCHAR uni115B
ENCODING 4443
SWIDTH 992 0
DWIDTH 16 0
BBX 16 16 0 0
BITMAP
0000
0000
0000
0000
7E00
0000
7E00
0000
7E00
0000
7E00
0000
7E00
0000
0000
0000
ENDCHAR
STARTCHAR uni115C
ENCODING 4444
SWIDTH 992 0
DWIDTH 16 0
BBX 16 16 0 0
BITMAP
0000
0000
0000
0000
7E00
0000
7E00
0000
7E00
0000
7E00
0000
7E00
0000
0000
0000
ENDCHAR
STARTCHAR uni115D
ENCODING 4445
SWIDTH 992 0
DWIDTH 16 0
BBX 16 16 0 0
BITMAP
0000
0000
0000
0000
7E00
0000
7E00
0000
7E00
0000
7E00
0000
7E00
0000
0000
0000
ENDCHAR
STARTCHAR uni115E
ENCODING 4446
SWIDTH 992 0
DWIDTH 16 0
BBX 16 16 0 0
BITMAP
0000
0000
0000
0000
7E00
0000
7E00
0000
7E00
0000
7E00
0000
7E00
0000
0000
0000
ENDCHAR
STARTCHAR uni115F
ENCODING 4447
SWIDTH 992 0
DWIDTH 16 0
BBX 16 16 0 0
BITMAP
0000
0000
0000
0000
7E00
0000
7E00
0000
7E00
0000
7E00
0000
7E00
0000
0000
0000
ENDCHAR
STARTCHAR uni1160
ENCODING 4448
SWIDTH 992 0
DWIDTH 16 0
BBX 16 16 0 0
BITMAP
0000
0000
0000
0000
7E00
0000
7E00
0000
7E00
0000
7E00
0000
7E00
0000
0000
0000
ENDCHAR
STARTCHAR uni1161
ENCODING 4449
SWIDTH 992 0
DWIDTH 16 0
BBX 16 16 0 0
BITMAP
0000
0000
0000
0000
0018
0018
0018
001E
0018
0018
0018
0018
0018
0000
0000
0000
ENDCHAR
STARTCHAR uni1162
ENCODING 4450
SWIDTH 992 0
DWIDTH 16 0
BBX 16 16 0 0
BITMAP
0000
0000
0000
0000
001B
001B
001B
001F
001B
001B
001B
001B
001B
0000
0000
0000
ENDCHAR
STARTCHAR uni1163
ENCODING 4451
SWIDTH 992 0
DWIDTH 16 0
BBX 16 16 0 0
BITMAP
0000
0000
0000
0000
0018
0018
001E
0018
0018
001E
0018
0018
0018
0000
0000
0000
ENDCHAR
STARTCHAR uni1164
ENCODING 4452
SWIDTH 992 0
DWIDTH 16 0
BBX 16 16 0 0
BITMAP
0000
0000
0000
0000
001B
001B
001F
001B
001B
001F
001B
001B
001B
0000
0000
0000
ENDCHAR
STARTCHAR uni1165
ENCODING 4453
SWIDTH 992 0
DWIDTH 16 0
BBX 16 16 0 0
BITMAP
0000
0000
0000
0000
000C
000C
000C
003C
000C
000C
000C
000C
000C
0000
0000
0000
ENDCHAR
STARTCHAR uni1166
ENCODING 4454
SWIDTH 992 0
DWIDTH 16 0
BBX 16 16 0 0
BITMAP
0000
0000
0000
0000
001B
001B
001B
007B
001B
001B
001B
001B
001B
0000
0000
0000
ENDCHAR
STARTCHAR uni1167
ENCODING 4455
SWIDTH 992 0
DWIDTH 16 0
BBX 16 16 0 0
BITMAP
0000
0000
0000
0000
000C
000C
003C
000C
000C
003C
000C
000C
000C
0000
0000
0000
ENDCHAR
STARTCHAR uni1168
ENCODING 4456
SWIDTH 992 0
DWIDTH 16 0
BBX 16 16 0 0
BITMAP
0000
0000
0000
0000
001B
001B
007B
001B
001B
007B
001B
001B
001B
0000
0000
0000
ENDCHAR
STARTCHAR uni1169
ENCODING 4457
SWIDTH 992 0
DWIDTH 16 0
BBX 16 16 0 0
BITMAP
0000
0000
0000
0000
0000
0000
0000
0000
0000
0C00
0C00
0C00
7FF0
0000
0000
0000
ENDCHAR
STARTCHAR uni116A
ENCODING 4458
SWIDTH 992 0
DWIDTH 16 0
BBX 16 16 0 0
BITMAP
0000
0000
0000
0000
0018
0018
0018
0018
001E
0C18
0C18
0C18
7FD8
0000
0000
0000
ENDCHAR
STARTCHAR uni116B
ENCODING 4459
SWIDTH 992 0
DWIDTH 16 0
BBX 16 16 0 0
BITMAP
0000
0000
0000
0000
001B
001B
001B
001B
001F
0C1B
0C1B
0C1B
7FDB
0000
0000
0000
ENDCHAR
STARTCHAR uni116C
ENCODING 4460
SWIDTH 992 0
DWIDTH 16 0
BBX 16 16 0 0
BITMAP
0000
0000
0000
0000
000C
000C
000C
000C
000C
0C0C
0C0C
0C0C
7FEC
0000
0000
0000
ENDCHAR
STARTCHAR uni116D
ENCODING 4461
SWIDTH 992 0
DWIDTH 16 0
BBX 16 16 0 0
BITMAP
0000
0000
0000
0000
0000
0000
0000
0000
0000
1B00
1B00
1B00
7FF0
0000
0000
0000
ENDCHAR
STARTCHAR uni116E
ENCODING 4462
SWIDTH 992 0
DWIDTH 16 0
BBX 16 16 0 0
BITMAP
0000
0000
0000
0000
0000
0000
0000
0000
0000
0000
7FF0
0300
0300
0000
0000
0000
ENDCHAR
STARTCHAR uni116F
ENCODING 4463
SWIDTH 992 0
DWIDTH 16 0
BBX 16 16 0 0
BITMAP
0000
0000
0000
0000
000C
000C
000C
000C
003C
000C
7FEC
0C0C
0C0C
0000
0000
0000
ENDCHAR
STARTCHAR uni1170
ENCODING 4464
SWIDTH 992 0
DWIDTH 16 0
BBX 16 16 0 0
BITMAP
0000
0000
0000
0000
001B
001B
001B
001B
001B
001B
7F9B
0C7B
0C1B
0000
0000
0000
ENDCHAR
STARTCHAR uni1171
ENCODING 4465
SWIDTH 992 0
DWIDTH 16 0
BBX 16 16 0 0
BITMAP
0000
0000
0000
0000
000C
000C
000C
000C
000C
000C
7FEC
0C0C
0C0C
0000
0000
0000
ENDCHAR
STARTCHAR uni1172
ENCODING 4466
SWIDTH 992 0
DWIDTH 16 0
BBX 16 16 0 0
BITMAP
0000
0000
0000
0000
0000
0000
0000
0000
0000
0000
7FF0
0CC0
0CC0
0000
0000
0000
ENDCHAR
STARTCHAR uni1173
ENCODING 4467
SWIDTH 992 0
DWIDTH 16 0
BBX 16 16 0 0
BITMAP
0000
0000
0000
0000
0000
0000
0000
0000
0000
0000
0000
7FF0
0000
0000
0000
0000
ENDCHAR
STARTCHAR uni1174
ENCODING 4468
SWIDTH 992 0
DWIDTH 16 0
BBX 16 16 0 0
BITMAP
0000
0000
0000
0000
000C
000C
000C
000C
000C
000C
000C
7FEC
000C
0000
0000
0000
ENDCHAR
STARTCHAR uni1175
ENCODING 4469
SWIDTH 992 0
DWIDTH 16 0
BBX 16 16 0 0
BITMAP
0000
0000
0000
0000
000C
000C
000C
000C
000C
000C
000C
000C
000C
0000
0000
0000
ENDCHAR
STARTCHAR uni1176
ENCODING 4470
SWIDTH 992 0
DWIDTH 16 0
BBX 16 16 0 0
BITMAP
0000
0000
0000
0000
0018
0018
0018
0018
001E
0C18
0C18
0C00
7FF8
0000
0000
0000
ENDCHAR
STARTCHAR uni1177
ENCODING 4471
SWIDTH 992 0
DWIDTH 16 0
BBX 16 16 0 0
BITMAP
0000
0000
0000
0000
0018
0018
001E
0018
0018
0000
7FF8
0300
0300
0000
0000
0000
ENDCHAR
STARTCHAR uni1178
ENCODING 4472
SWIDTH 992 0
DWIDTH 16 0
BBX 16 16 0 0
BITMAP
0000
0000
0000
0000
0018
0018
001E
0018
0018
0C1E
0C18
0C00
7FF8
0000
0000
0000
ENDCHAR
STARTCHAR uni1179
ENCODING 4473
SWIDTH 992 0
DWIDTH 16 0
BBX 16 16 0 0
BITMAP
0000
0000
0000
0000
0018
0018
001E
0018
0018
1B1E
1B18
1B00
7FF8
0000
0000
0000
ENDCHAR
STARTCHAR uni117A
ENCODING 4474
SWIDTH 992 0
DWIDTH 16 0
BBX 16 16 0 0
BITMAP
0000
0000
0000
0000
000C
000C
000C
000C
003C
0C0C
0C0C
0C00
7FFC
0000
0000
0000
ENDCHAR
STARTCHAR uni117B
ENCODING 4475
SWIDTH 992 0
DWIDTH 16 0
BBX 16 16 0 0
BITMAP
0000
0000
0000
0000
000C
000C
000C
003C
000C
0000
7FFC
0300
0300
0000
0000
0000
ENDCHAR
STARTCHAR uni117C
ENCODING 4476
SWIDTH 992 0
DWIDTH 16 0
BBX 16 16 0 0
BITMAP
0000
0000
0000
0000
000C
000C
000C
003C
000C
000C
0000
7FFC
0000
0000
0000
0000
ENDCHAR
STARTCHAR uni117D
ENCODING 4477
SWIDTH 992 0
DWIDTH 16 0
BBX 16 16 0 0
BITMAP
0000
0000
0000
0000
000C
000C
003C
000C
000C
0C3C
0C0C
0C00
7FFC
0000
0000
0000
ENDCHAR
STARTCHAR uni117E
ENCODING 4478
SWIDTH 992 0
DWIDTH 16 0
BBX 16 16 0 0
BITMAP
0000
0000
0000
0000
0006
001E
0006
001E
0006
0000
3FFE
0180
0180
0000
0000
0000
ENDCHAR
STARTCHAR uni117F
ENCODING 4479
SWIDTH 992 0
DWIDTH 16 0
BBX 16 16 0 0
BITMAP
0000
0000
0000
0000
000C
000C
000C
000C
003C
0C0C
0C0C
0C0C
7FCC
0000
0000
0000
ENDCHAR
STARTCHAR uni1180
ENCODING 4480
SWIDTH 992 0
DWIDTH 16 0
BBX 16 16 0 0
BITMAP
0000
0000
0000
0000
001B
001B
001B
001B
007B
0C1B
0C1B
0C1B
7FDB
0000
0000
0000
ENDCHAR
STARTCHAR uni1181
ENCODING 4481
SWIDTH 992 0
DWIDTH 16 0
BBX 16 16 0 0
BITMAP
0000
0000
0000
0000
001B
001B
001B
007B
001B
0C1B
0C7B
0C1B
7FDB
0000
0000
0000
ENDCHAR
STARTCHAR uni1182
ENCODING 4482
SWIDTH 992 0
DWIDTH 16 0
BBX 16 16 0 0
BITMAP
0000
0000
0000
0000
0000
0000
0000
0000
0000
0C00
7FF0
0600
7FF0
0000
0000
0000
ENDCHAR
STARTCHAR uni1183
ENCODING 4483
SWIDTH 992 0
DWIDTH 16 0
BBX 16 16 0 0
BITMAP
0000
0000
0000
0000
0000
0000
0000
0000
0000
0C00
7FF0
0000
7FF0
0600
0000
0000
ENDCHAR
STARTCHAR uni1184
ENCODING 4484
SWIDTH 992 0
DWIDTH 16 0
BBX 16 16 0 0
BITMAP
0000
0000
0000
0000
000C
000C
000F
000C
000C
1B0F
1B0C
1B0C
7FCC
0000
0000
0000
ENDCHAR
STARTCHAR uni1185
ENCODING 4485
SWIDTH 992 0
DWIDTH 16 0
BBX 16 16 0 0
BITMAP
0000
0000
0000
0000
001B
001B
001F
001B
001B
1B1F
1B1B
1B1B
7FDB
0000
0000
0000
ENDCHAR
STARTCHAR uni1186
ENCODING 4486
SWIDTH 992 0
DWIDTH 16 0
BBX 16 16 0 0
BITMAP
0000
0000
0000
0000
000C
000C
003C
000C
000C
1B3C
1B0C
1B0C
7FCC
0000
0000
0000
ENDCHAR
STARTCHAR uni1187
ENCODING 4487
SWIDTH 992 0
DWIDTH 16 0
BBX 16 16 0 0
BITMAP
0000
0000
0000
0000
0000
0000
0000
0000
0000
1B00
7FF0
0600
7FF0
0000
0000
0000
ENDCHAR
STARTCHAR uni1188
ENCODING 4488
SWIDTH 992 0
DWIDTH 16 0
BBX 16 16 0 0
BITMAP
0000
0000
0000
0000
000C
000C
000C
000C
000C
1B0C
1B0C
1B0C
7FCC
0000
0000
0000
ENDCHAR
STARTCHAR uni1189
ENCODING 4489
SWIDTH 992 0
DWIDTH 16 0
BBX 16 16 0 0
BITMAP
0000
0000
0000
0000
000C
000C
000C
000C
000F
000C
7FEC
0C0C
0C0C
0000
0000
0000
ENDCHAR
STARTCHAR uni118A
ENCODING 4490
SWIDTH 992 0
DWIDTH 16 0
BBX 16 16 0 0
BITMAP
0000
0000
0000
0000
001B
001B
001B
001B
001F
001B
7FDB
0C1B
0C1B
0000
0000
0000
ENDCHAR
STARTCHAR uni118B
ENCODING 4491
SWIDTH 992 0
DWIDTH 16 0
BBX 16 16 0 0
BITMAP
0000
0000
0000
0000
000C
000C
000C
003C
000C
000C
7FEC
0C0C
000C
3FE0
0000
0000
ENDCHAR
STARTCHAR uni118C
ENCODING 4492
SWIDTH 992 0
DWIDTH 16 0
BBX 16 16 0 0
BITMAP
0000
0000
0000
0000
001B
001B
007B
001B
007B
001B
7FDB
0C1B
0C1B
0000
0000
0000
ENDCHAR
STARTCHAR uni118D
ENCODING 4493
SWIDTH 992 0
DWIDTH 16 0
BBX 16 16 0 0
BITMAP
0000
0000
0000
0000
0000
0000
0000
0000
0000
7FF0
0600
0000
7FF0
0600
0000
0000
ENDCHAR
STARTCHAR uni118E
ENCODING 4494
SWIDTH 992 0
DWIDTH 16 0
BBX 16 16 0 0
BITMAP
0000
0000
0000
0000
000C
000C
000C
000F
000C
000C
7FEC
1B0C
1B0C
0000
0000
0000
ENDCHAR
STARTCHAR uni118F
ENCODING 4495
SWIDTH 992 0
DWIDTH 16 0
BBX 16 16 0 0
BITMAP
0000
0000
0000
0000
000C
000C
000C
000C
003C
000C
7FEC
1B0C
1B0C
0000
0000
0000
ENDCHAR
STARTCHAR uni1190
ENCODING 4496
SWIDTH 992 0
DWIDTH 16 0
BBX 16 16 0 0
BITMAP
0000
0000
0000
0000
001B
001B
001B
001B
007B
001B
7FDB
1B1B
1B1B
0000
0000
0000
ENDCHAR
STARTCHAR uni1191
ENCODING 4497
SWIDTH 992 0
DWIDTH 16 0
BBX 16 16 0 0
BITMAP
0000
0000
0000
0000
000C
000C
003C
000C
003C
000C
7FEC
1B0C
1B0C
0000
0000
0000
ENDCHAR
STARTCHAR uni1192
ENCODING 4498
SWIDTH 992 0
DWIDTH 16 0
BBX 16 16 0 0
BITMAP
0000
0000
0000
0000
001B
001B
007B
001B
007B
001B
7FDB
1B1B
1B1B
0000
0000
0000
ENDCHAR
STARTCHAR uni1193
ENCODING 4499
SWIDTH 992 0
DWIDTH 16 0
BBX 16 16 0 0
BITMAP
0000
0000
0000
0000
0000
0000
0000
0000
0000
7FF0
1B00
0000
7FF0
0600
0000
0000
ENDCHAR
STARTCHAR uni1194
ENCODING 4500
SWIDTH 992 0
DWIDTH 16 0
BBX 16 16 0 0
BITMAP
0000
0000
0000
0000
000C
000C
000C
000C
000C
000C
7FEC
1B0C
1B0C
0000
0000
0000
ENDCHAR
STARTCHAR uni1195
ENCODING 4501
SWIDTH 992 0
DWIDTH 16 0
BBX 16 16 0 0
BITMAP
0000
0000
0000
0000
0000
0000
0000
0000
0000
7FF0
0000
7FF0
0600
0000
0000
0000
ENDCHAR
STARTCHAR uni1196
ENCODING 4502
SWIDTH 992 0
DWIDTH 16 0
BBX 16 16 0 0
BITMAP
0000
0000
0000
0000
0000
0000
0000
0000
0000
7FF0
0000
7FF0
0000
0000
0000
0000
ENDCHAR
STARTCHAR uni1197
ENCODING 4503
SWIDTH 992 0
DWIDTH 16 0
BBX 16 16 0 0
BITMAP
0000
0000
0000
0000
000C
000C
000C
000C
000C
7FEC
0000
7FFC
0300
0000
0000
0000
ENDCHAR
STARTCHAR uni1198
ENCODING 4504
SWIDTH 992 0
DWIDTH 16 0
BBX 16 16 0 0
BITMAP
0000
0000
0000
0000
0036
0036
0036
0037
0036
0036
0036
0036
0036
0000
0000
0000
ENDCHAR
STARTCHAR uni1199
ENCODING 4505
SWIDTH 992 0
DWIDTH 16 0
BBX 16 16 0 0
BITMAP
0000
0000
0000
0000
0036
0036
0037
0036
0036
0037
0036
0036
0036
0000
0000
0000
ENDCHAR
STARTCHAR uni119A
ENCODING 4506
SWIDTH 992 0
DWIDTH 16 0
BBX 16 16 0 0
BITMAP
0000
0000
0000
0000
0018
0018
0018
0018
0018
0C18
0C18
0C00
7FF8
0000
0000
0000
ENDCHAR
STARTCHAR uni119B
ENCODING 4507
SWIDTH 992 0
DWIDTH 16 0
BBX 16 16 0 0
BITMAP
0000
0000
0000
0000
0018
0018
0018
0018
0018
0000
7FF8
0300
0300
0000
0000
0000
ENDCHAR
STARTCHAR uni119C
ENCODING 4508
SWIDTH 992 0
DWIDTH 16 0
BBX 16 16 0 0
BITMAP
0000
0000
0000
0000
0018
0018
0018
0018
0018
0018
0018
0000
7FFC
0000
0000
0000
ENDCHAR
STARTCHAR uni119D
ENCODING 4509
SWIDTH 992 0
DWIDTH 16 0
BBX 16 16 0 0
BITMAP
0000
0000
0000
0000
0018
0018
0018
0018
0018
0018
0000
0030
0030
0000
0000
0000
ENDCHAR
STARTCHAR uni119E
ENCODING 4510
SWIDTH 992 0
DWIDTH 16 0
BBX 16 16 0 0
BITMAP
0000
0000
0000
0000
0000
0000
0000
0000
0000
0000
0C00
0C00
0000
0000
0000
0000
ENDCHAR
STARTCHAR uni119F
ENCODING 4511
SWIDTH 992 0
DWIDTH 16 0
BBX 16 16 0 0
BITMAP
0000
0000
0000
0000
0018
0018
0018
0078
0018
0018
0C18
0C18
0000
0000
0000
0000
ENDCHAR
STARTCHAR uni11A0
ENCODING 4512
SWIDTH 992 0
DWIDTH 16 0
BBX 16 16 0 0
BITMAP
0000
0000
0000
0000
0000
0000
0000
0000
0000
0C00
0C00
0000
7FF0
0600
0000
0000
ENDCHAR
STARTCHAR uni11A1
ENCODING 4513
SWIDTH 992 0
DWIDTH 16 0
BBX 16 16 0 0
BITMAP
0000
0000
0000
0000
0018
0018
0018
0018
0018
0018
0C18
0C18
0000
0000
0000
0000
ENDCHAR
STARTCHAR uni11A2
ENCODING 4514
SWIDTH 992 0
DWIDTH 16 0
BBX 16 16 0 0
BITMAP
0000
0000
0000
0000
0000
0000
0000
0000
0000
0000
1980
1980
0000
0000
0000
0000
ENDCHAR
STARTCHAR uni11A3
ENCODING 4515
SWIDTH 992 0
DWIDTH 16 0
BBX 16 16 0 0
BITMAP
0000
0000
0000
0000
7E00
0000
7E00
0000
7E00
0000
7E00
0000
7E00
0000
0000
0000
ENDCHAR
STARTCHAR uni11A4
ENCODING 4516
SWIDTH 992 0
DWIDTH 16 0
BBX 16 16 0 0
BITMAP
0000
0000
0000
0000
7E00
0000
7E00
0000
7E00
0000
7E00
0000
7E00
0000
0000
0000
ENDCHAR
STARTCHAR uni11A5
ENCODING 4517
SWIDTH 992 0
DWIDTH 16 0
BBX 16 16 0 0
BITMAP
0000
0000
0000
0000
7E00
0000
7E00
0000
7E00
0000
7E00
0000
7E00
0000
0000
0000
ENDCHAR
STARTCHAR uni11A6
ENCODING 4518
SWIDTH 992 0
DWIDTH 16 0
BBX 16 16 0 0
BITMAP
0000
0000
0000
0000
7E00
0000
7E00
0000
7E00
0000
7E00
0000
7E00
0000
0000
0000
ENDCHAR
STARTCHAR uni11A7
ENCODING 4519
SWIDTH 992 0
DWIDTH 16 0
BBX 16 16 0 0
BITMAP
0000
0000
0000
0000
7E00
0000
7E00
0000
7E00
0000
7E00
0000
7E00
0000
0000
0000
ENDCHAR
STARTCHAR uni11A8
ENCODING 4520
SWIDTH 992 0
DWIDTH 16 0
BBX 16 16 0 0
BITMAP
0000
0000
0000
0000
0000
0000
0000
1FF8
0018
0018
0018
0000
0000
0000
0000
0000
ENDCHAR
STARTCHAR uni11A9
ENCODING 4521
SWIDTH 992 0
DWIDTH 16 0
BBX 16 16 0 0
BITMAP
0000
0000
0000
0000
0000
0000
0000
3EF8
0618
0618
0618
0000
0000
0000
0000
0000
ENDCHAR
STARTCHAR uni11AA
ENCODING 4522
SWIDTH 992 0
DWIDTH 16 0
BBX 16 16 0 0
BITMAP
0000
0000
0000
0000
0000
0000
0000
1E20
0670
06D8
078C
0000
0000
0000
0000
0000
ENDCHAR
STARTCHAR uni11AB
ENCODING 4523
SWIDTH 992 0
DWIDTH 16 0
BBX 16 16 0 0
BITMAP
0000
0000
0000
0000
0000
0000
0000
1800
1800
1800
1FF8
0000
0000
0000
0000
0000
ENDCHAR
STARTCHAR uni11AC
ENCODING 4524
SWIDTH 992 0
DWIDTH 16 0
BBX 16 16 0 0
BITMAP
0000
0000
0000
0000
0000
0000
0000
19F8
1860
18F0
1F98
0000
0000
0000
0000
0000
ENDCHAR
STARTCHAR uni11AD
ENCODING 4525
SWIDTH 992 0
DWIDTH 16 0
BBX 16 16 0 0
BITMAP
0000
0000
0000
0000
0000
0000
0060
1BFC
1998
1998
1EF0
0000
0000
0000
0000
0000
ENDCHAR
STARTCHAR uni11AE
ENCODING 4526
SWIDTH 992 0
DWIDTH 16 0
BBX 16 16 0 0
BITMAP
0000
0000
0000
0000
0000
0000
0000
1FF8
1800
1800
1FF8
0000
0000
0000
0000
0000
ENDCHAR
STARTCHAR uni11AF
ENCODING 4527
SWIDTH 992 0
DWIDTH 16 0
BBX 16 16 0 0
BITMAP
0000
0000
0000
0000
0000
0000
0000
1FF8
0018
1FF8
1800
1FF8
0000
0000
0000
0000
ENDCHAR
STARTCHAR uni11B0
ENCODING 4528
SWIDTH 992 0
DWIDTH 16 0
BBX 16 16 0 0
BITMAP
0000
0000
0000
0000
0000
0000
0000
1F78
0318
1F18
1818
1F18
0000
0000
0000
0000
ENDCHAR
STARTCHAR uni11B1
ENCODING 4529
SWIDTH 992 0
DWIDTH 16 0
BBX 16 16 0 0
BITMAP
0000
0000
0000
0000
0000
0000
0000
3EF8
06D8
3ED8
30D8
3EF8
0000
0000
0000
0000
ENDCHAR
STARTCHAR uni11B2
ENCODING 4530
SWIDTH 992 0
DWIDTH 16 0
BBX 16 16 0 0
BITMAP
0000
0000
0000
0000
0000
0000
0000
3ED8
06D8
3EF8
30D8
3EF8
0000
0000
0000
0000
ENDCHAR
STARTCHAR uni11B3
ENCODING 4531
SWIDTH 992 0
DWIDTH 16 0
BBX 16 16 0 0
BITMAP
0000
0000
0000
0000
0000
0000
0000
3E20
0670
3ED8
318C
3E00
0000
0000
0000
0000
ENDCHAR
STARTCHAR uni11B4
ENCODING 4532
SWIDTH 992 0
DWIDTH 16 0
BBX 16 16 0 0
BITMAP
0000
0000
0000
0000
0000
0000
0000
1F78
0360
1F78
1860
1F78
0000
0000
0000
0000
ENDCHAR
STARTCHAR uni11B5
ENCODING 4533
SWIDTH 992 0
DWIDTH 16 0
BBX 16 16 0 0
BITMAP
0000
0000
0000
0000
0000
0000
0000
3FFC
06D8
3ED8
31FC
3E00
0000
0000
0000
0000
ENDCHAR
STARTCHAR uni11B6
ENCODING 4534
SWIDTH 992 0
DWIDTH 16 0
BBX 16 16 0 0
BITMAP
0000
0000
0000
0000
0000
0000
0000
3C60
0FFC
3D98
3198
3CF0
0000
0000
0000
0000
ENDCHAR
STARTCHAR uni11B7
ENCODING 4535
SWIDTH 992 0
DWIDTH 16 0
BBX 16 16 0 0
BITMAP
0000
0000
0000
0000
0000
0000
0000
1FF8
1818
1818
1FF8
0000
0000
0000
0000
0000
ENDCHAR
STARTCHAR uni11B8
ENCODING 4536
SWIDTH 992 0
DWIDTH 16 0
BBX 16 16 0 0
BITMAP
0000
0000
0000
0000
0000
0000
0000
1818
1FF8
1818
1FF8
0000
0000
0000
0000
0000
ENDCHAR
STARTCHAR uni11B9
ENCODING 4537
SWIDTH 992 0
DWIDTH 16 0
BBX 16 16 0 0
BITMAP
0000
0000
0000
0000
0000
0000
0000
1B10
1F38
1B6C
1FC6
0000
0000
0000
0000
0000
ENDCHAR
STARTCHAR uni11BA
ENCODING 4538
SWIDTH 992 0
DWIDTH 16 0
BBX 16 16 0 0
BITMAP
0000
0000
0000
0000
0000
0000
0100
0380
06C0
0C60
1830
0000
0000
0000
0000
0000
ENDCHAR
STARTCHAR uni11BB
ENCODING 4539
SWIDTH 992 0
DWIDTH 16 0
BBX 16 16 0 0
BITMAP
0000
0000
0000
0000
0000
0000
0000
0420
0E70
1BD8
318C
0000
0000
0000
0000
0000
ENDCHAR
STARTCHAR uni11BC
ENCODING 4540
SWIDTH 992 0
DWIDTH 16 0
BBX 16 16 0 0
BITMAP
0000
0000
0000
0000
0000
0000
0000
03C0
0660
0660
0660
03C0
0000
0000
0000
0000
ENDCHAR
STARTCHAR uni11BD
ENCODING 4541
SWIDTH 992 0
DWIDTH 16 0
BBX 16 16 0 0
BITMAP
0000
0000
0000
0000
0000
0000
0000
1FF8
03C0
0660
0C30
1818
0000
0000
0000
0000
ENDCHAR
STARTCHAR uni11BE
ENCODING 4542
SWIDTH 992 0
DWIDTH 16 0
BBX 16 16 0 0
BITMAP
0000
0000
0000
0000
0000
0000
0000
0180
3FF8
0C60
1830
3018
0000
0000
0000
0000
ENDCHAR
STARTCHAR uni11BF
ENCODING 4543
SWIDTH 992 0
DWIDTH 16 0
BBX 16 16 0 0
BITMAP
0000
0000
0000
0000
0000
0000
0000
1FF8
0018
1FF8
0018
0000
0000
0000
0000
0000
ENDCHAR
STARTCHAR uni11C0
ENCODING 4544
SWIDTH 992 0
DWIDTH 16 0
BBX 16 16 0 0
BITMAP
0000
0000
0000
0000
0000
0000
0000
1FF8
1800
1FF8
1800
1FF8
0000
0000
0000
0000
ENDCHAR
STARTCHAR uni11C1
ENCODING 4545
SWIDTH 992 0
DWIDTH 16 0
BBX 16 16 0 0
BITMAP
0000
0000
0000
0000
0000
0000
0000
1FF8
0660
0660
1FF8
0000
0000
0000
0000
0000
ENDCHAR
STARTCHAR uni11C2
ENCODING 4546
SWIDTH 992 0
DWIDTH 16 0
BBX 16 16 0 0
BITMAP
0000
0000
0000
0000
0000
0000
0180
0180
1FF8
0660
0660
03C0
0000
0000
0000
0000
ENDCHAR
STARTCHAR uni11C3
ENCODING 4547
SWIDTH 992 0
DWIDTH 16 0
BBX 16 16 0 0
BITMAP
0000
0000
0000
0000
0000
0000
0000
3EF8
0618
06F8
06C0
00F8
0000
0000
0000
0000
ENDCHAR
STARTCHAR uni11C4
ENCODING 4548
SWIDTH 992 0
DWIDTH 16 0
BBX 16 16 0 0
BITMAP
0000
0000
0000
0000
0000
0000
0000
3DBC
0D8C
0FCC
0F4C
0340
0000
0000
0000
0000
ENDCHAR
STARTCHAR uni11C5
ENCODING 4549
SWIDTH 992 0
DWIDTH 16 0
BBX 16 16 0 0
BITMAP
0000
0000
0000
0000
0000
0000
0000
19F0
1830
1830
1F30
0000
0000
0000
0000
0000
ENDCHAR
STARTCHAR uni11C6
ENCODING 4550
SWIDTH 992 0
DWIDTH 16 0
BBX 16 16 0 0
BITMAP
0000
0000
0000
0000
0000
0000
0000
31F0
3180
3180
3FF0
0000
0000
0000
0000
0000
ENDCHAR
STARTCHAR uni11C7
ENCODING 4551
SWIDTH 992 0
DWIDTH 16 0
BBX 16 16 0 0
BITMAP
0000
0000
0000
0000
0000
0000
0000
1820
1870
18D8
1F8C
0000
0000
0000
0000
0000
ENDCHAR
STARTCHAR uni11C8
ENCODING 4552
SWIDTH 992 0
DWIDTH 16 0
BBX 16 16 0 0
BITMAP
0000
0000
0000
0000
0000
0000
0000
1820
1870
18D8
1FFC
0000
0000
0000
0000
0000
ENDCHAR
STARTCHAR uni11C9
ENCODING 4553
SWIDTH 992 0
DWIDTH 16 0
BBX 16 16 0 0
BITMAP
0000
0000
0000
0000
0000
0000
0000
31F0
3180
31F0
3F80
01F0
0000
0000
0000
0000
ENDCHAR
STARTCHAR uni11CA
ENCODING 4554
SWIDTH 992 0
DWIDTH 16 0
BBX 16 16 0 0
BITMAP
0000
0000
0000
0000
0000
0000
0000
1EF0
1830
1830
1E30
0000
0000
0000
0000
0000
ENDCHAR
STARTCHAR uni11CB
ENCODING 4555
SWIDTH 992 0
DWIDTH 16 0
BBX 16 16 0 0
BITMAP
0000
0000
0000
0000
0000
0000
0000
1EF0
1830
18F0
1EC0
00F0
0000
0000
0000
0000
ENDCHAR
STARTCHAR uni11CC
ENCODING 4556
SWIDTH 992 0
DWIDTH 16 0
BBX 16 16 0 0
BITMAP
0000
0000
0000
0000
0000
0000
0000
3C18
0F98
3DBC
31A4
3DA4
0000
0000
0000
0000
ENDCHAR
STARTCHAR uni11CD
ENCODING 4557
SWIDTH 992 0
DWIDTH 16 0
BBX 16 16 0 0
BITMAP
0000
0000
0000
0000
0000
0000
0000
1EC0
06C0
1EC0
18F0
1E00
0000
0000
0000
0000
ENDCHAR
STARTCHAR uni11CE
ENCODING 4558
SWIDTH 992 0
DWIDTH 16 0
BBX 16 16 0 0
BITMAP
0000
0000
0000
0000
0000
0000
0000
1EF0
06C0
1EC0
18F0
1E00
0000
0000
0000
0000
ENDCHAR
STARTCHAR uni11CF
ENCODING 4559
SWIDTH 992 0
DWIDTH 16 0
BBX 16 16 0 0
BITMAP
0000
0000
0000
0000
0000
0000
0018
387E
1FB4
3E34
3618
3F80
0000
0000
0000
0000
ENDCHAR
STARTCHAR uni11D0
ENCODING 4560
SWIDTH 992 0
DWIDTH 16 0
BBX 16 16 0 0
BITMAP
0000
0000
0000
0000
0000
0000
0000
1EF0
0630
1EF0
18C0
1EF0
0000
0000
0000
0000
ENDCHAR
STARTCHAR uni11D1
ENCODING 4561
SWIDTH 992 0
DWIDTH 16 0
BBX 16 16 0 0
BITMAP
0000
0000
0000
0000
0000
0000
0000
383C
1FCC
3ECC
37CC
3800
0000
0000
0000
0000
ENDCHAR
STARTCHAR uni11D2
ENCODING 4562
SWIDTH 992 0
DWIDTH 16 0
BBX 16 16 0 0
BITMAP
0000
0000
0000
0000
0000
0000
0000
3818
1FD8
3EFC
37F4
3834
0000
0000
0000
0000
ENDCHAR
STARTCHAR uni11D3
ENCODING 4563
SWIDTH 992 0
DWIDTH 16 0
BBX 16 16 0 0
BITMAP
0000
0000
0000
0000
0000
0000
06C0
3ED8
1FD8
3EFC
37F4
3834
0000
0000
0000
0000
ENDCHAR
STARTCHAR uni11D4
ENCODING 4564
SWIDTH 992 0
DWIDTH 16 0
BBX 16 16 0 0
BITMAP
0000
0000
0000
0000
0000
0000
0680
3E98
1FFE
3EB4
37B4
3818
0000
0000
0000
0000
ENDCHAR
STARTCHAR uni11D5
ENCODING 4565
SWIDTH 992 0
DWIDTH 16 0
BBX 16 16 0 0
BITMAP
0000
0000
0000
0000
0000
0000
0198
3DF8
0D98
3DF8
30D0
3C60
0000
0000
0000
0000
ENDCHAR
STARTCHAR uni11D6
ENCODING 4566
SWIDTH 992 0
DWIDTH 16 0
BBX 16 16 0 0
BITMAP
0000
0000
0000
0000
0000
0000
0000
3B30
1B30
3FB0
34BC
3C80
0000
0000
0000
0000
ENDCHAR
STARTCHAR uni11D7
ENCODING 4567
SWIDTH 992 0
DWIDTH 16 0
BBX 16 16 0 0
BITMAP
0000
0000
0000
0000
0000
0000
0000
1E20
0650
1ED8
18F8
1E00
0000
0000
0000
0000
ENDCHAR
STARTCHAR uni11D8
ENCODING 4568
SWIDTH 992 0
DWIDTH 16 0
BBX 16 16 0 0
BITMAP
0000
0000
0000
0000
0000
0000
0000
1EF0
0630
1EF0
1830
1E00
0000
0000
0000
0000
ENDCHAR
STARTCHAR uni11D9
ENCODING 4569
SWIDTH 992 0
DWIDTH 16 0
BBX 16 16 0 0
BITMAP
0000
0000
0000
0000
0000
0000
01F8
3C00
0CF0
3D98
3198
3CF0
0000
0000
0000
0000
ENDCHAR
STARTCHAR uni11DA
ENCODING 4570
SWIDTH 992 0
DWIDTH 16 0
BBX 16 16 0 0
BITMAP
0000
0000
0000
0000
0000
0000
0000
1F78
1B18
1B18
1F18
0000
0000
0000
0000
0000
ENDCHAR
STARTCHAR uni11DB
ENCODING 4571
SWIDTH 992 0
DWIDTH 16 0
BBX 16 16 0 0
BITMAP
0000
0000
0000
0000
0000
0000
0000
1F70
1B30
1B70
1F60
0070
0000
0000
0000
0000
ENDCHAR
STARTCHAR uni11DC
ENCODING 4572
SWIDTH 992 0
DWIDTH 16 0
BBX 16 16 0 0
BITMAP
0000
0000
0000
0000
0000
0000
0000
3ED8
36F8
36D8
3EF8
0000
0000
0000
0000
0000
ENDCHAR
STARTCHAR uni11DD
ENCODING 4573
SWIDTH 992 0
DWIDTH 16 0
BBX 16 16 0 0
BITMAP
0000
0000
0000
0000
0000
0000
0000
3E60
3660
3660
3EF0
0198
0000
0000
0000
0000
ENDCHAR
STARTCHAR uni11DE
ENCODING 4574
SWIDTH 992 0
DWIDTH 16 0
BBX 16 16 0 0
BITMAP
0000
0000
0000
0000
0000
0000
0000
3ED8
36D8
36D8
3FFC
01B4
0000
0000
0000
0000
ENDCHAR
STARTCHAR uni11DF
ENCODING 4575
SWIDTH 992 0
DWIDTH 16 0
BBX 16 16 0 0
BITMAP
0000
0000
0000
0000
0000
0000
0000
3E60
36F0
3798
3FF8
0000
0000
0000
0000
0000
ENDCHAR
STARTCHAR uni11E0
ENCODING 4576
SWIDTH 992 0
DWIDTH 16 0
BBX 16 16 0 0
BITMAP
0000
0000
0000
0000
0000
0000
0000
3E60
37F8
3660
3EF0
0198
0000
0000
0000
0000
ENDCHAR
STARTCHAR uni11E1
ENCODING 4577
SWIDTH 992 0
DWIDTH 16 0
BBX 16 16 0 0
BITMAP
0000
0000
0000
0000
0000
0000
0000
3E30
37FE
36CC
3ECC
0078
0000
0000
0000
0000
ENDCHAR
STARTCHAR uni11E2
ENCODING 4578
SWIDTH 992 0
DWIDTH 16 0
BBX 16 16 0 0
BITMAP
0000
0000
0000
0000
0000
0000
0000
1FF8
1818
1FF8
0620
03C0
0000
0000
0000
0000
ENDCHAR
STARTCHAR uni11E3
ENCODING 4579
SWIDTH 992 0
DWIDTH 16 0
BBX 16 16 0 0
BITMAP
0000
0000
0000
0000
0000
0000
0000
36F0
3E30
36F0
3EC0
00F0
0000
0000
0000
0000
ENDCHAR
STARTCHAR uni11E4
ENCODING 4580
SWIDTH 992 0
DWIDTH 16 0
BBX 16 16 0 0
BITMAP
0000
0000
0000
0000
0000
0000
0000
3600
3FF8
36D0
3ED0
01F8
0000
0000
0000
0000
ENDCHAR
STARTCHAR uni11E5
ENCODING 4581
SWIDTH 992 0
DWIDTH 16 0
BBX 16 16 0 0
BITMAP
0000
0000
0000
0000
0000
0000
0000
3630
3FFE
36CC
3ECC
0078
0000
0000
0000
0000
ENDCHAR
STARTCHAR uni11E6
ENCODING 4582
SWIDTH 992 0
DWIDTH 16 0
BBX 16 16 0 0
BITMAP
0000
0000
0000
0000
0000
0000
1830
1FF0
1830
1FF0
0640
0380
0000
0000
0000
0000
ENDCHAR
STARTCHAR uni11E7
ENCODING 4583
SWIDTH 992 0
DWIDTH 16 0
BBX 16 16 0 0
BITMAP
0000
0000
0000
0000
0000
0000
0000
09F0
1C30
3630
6330
0000
0000
0000
0000
0000
ENDCHAR
STARTCHAR uni11E8
ENCODING 4584
SWIDTH 992 0
DWIDTH 16 0
BBX 16 16 0 0
BITMAP
0000
0000
0000
0000
0000
0000
0000
08F8
1CC0
36C0
63F8
0000
0000
0000
0000
0000
ENDCHAR
STARTCHAR uni11E9
ENCODING 4585
SWIDTH 992 0
DWIDTH 16 0
BBX 16 16 0 0
BITMAP
0000
0000
0000
0000
0000
0000
0000
08F0
1C30
36F0
63C0
00F0
0000
0000
0000
0000
ENDCHAR
STARTCHAR uni11EA
ENCODING 4586
SWIDTH 992 0
DWIDTH 16 0
BBX 16 16 0 0
BITMAP
0000
0000
0000
0000
0000
0000
0000
08D8
1CF8
36D8
63F8
0000
0000
0000
0000
0000
ENDCHAR
STARTCHAR uni11EB
ENCODING 4587
SWIDTH 992 0
DWIDTH 16 0
BBX 16 16 0 0
BITMAP
0000
0000
0000
0000
0000
0000
0100
0380
06C0
0C60
1FF0
0000
0000
0000
0000
0000
ENDCHAR
STARTCHAR uni11EC
ENCODING 4588
SWIDTH 992 0
DWIDTH 16 0
BBX 16 16 0 0
BITMAP
0000
0000
0000
0000
0000
0000
0000
1EF8
3318
3318
1E18
0000
0000
0000
0000
0000
ENDCHAR
STARTCHAR uni11ED
ENCODING 4589
SWIDTH 992 0
DWIDTH 16 0
BBX 16 16 0 0
BITMAP
0000
0000
0000
0000
0000
0000
0000
3BF8
6CD8
6CD8
38D8
0000
0000
0000
0000
0000
ENDCHAR
STARTCHAR uni11EE
ENCODING 4590
SWIDTH 992 0
DWIDTH 16 0
BBX 16 16 0 0
BITMAP
0000
0000
0000
0000
0000
0000
0000
1C70
36D8
36D8
1C70
0000
0000
0000
0000
0000
ENDCHAR
STARTCHAR uni11EF
ENCODING 4591
SWIDTH 992 0
DWIDTH 16 0
BBX 16 16 0 0
BITMAP
0000
0000
0000
0000
0000
0000
0000
1CF8
3618
36F8
1C18
0000
0000
0000
0000
0000
ENDCHAR
STARTCHAR uni11F0
ENCODING 4592
SWIDTH 992 0
DWIDTH 16 0
BBX 16 16 0 0
BITMAP
0000
0000
0000
0000
0000
0000
0180
0180
03C0
0660
0660
03C0
0000
0000
0000
0000
ENDCHAR
STARTCHAR uni11F1
ENCODING 4593
SWIDTH 992 0
DWIDTH 16 0
BBX 16 16 0 0
BITMAP
0000
0000
0000
0000
0000
0000
0C00
0C30
1E30
3330
3378
1ECC
0000
0000
0000
0000
ENDCHAR
STARTCHAR uni11F2
ENCODING 4594
SWIDTH 992 0
DWIDTH 16 0
BBX 16 16 0 0
BITMAP
0000
0000
0000
0000
0000
0000
0C00
0C10
1E38
336C
337C
1E00
0000
0000
0000
0000
ENDCHAR
STARTCHAR uni11F3
ENCODING 4595
SWIDTH 992 0
DWIDTH 16 0
BBX 16 16 0 0
BITMAP
0000
0000
0000
0000
0000
0000
0000
3F68
1A78
1A68
3F78
0000
0000
0000
0000
0000
ENDCHAR
STARTCHAR uni11F4
ENCODING 4596
SWIDTH 992 0
DWIDTH 16 0
BBX 16 16 0 0
BITMAP
0000
0000
0000
0000
0000
0000
0000
3FF8
0C60
3FF8
0640
0380
0000
0000
0000
0000
ENDCHAR
STARTCHAR uni11F5
ENCODING 4597
SWIDTH 992 0
DWIDTH 16 0
BBX 16 16 0 0
BITMAP
0000
0000
0000
0000
0000
0000
0000
0C60
7FE0
3360
337C
1E00
0000
0000
0000
0000
ENDCHAR
STARTCHAR uni11F6
ENCODING 4598
SWIDTH 992 0
DWIDTH 16 0
BBX 16 16 0 0
BITMAP
0000
0000
0000
0000
0000
0000
0000
0C78
7F98
3378
3360
1E78
0000
0000
0000
0000
ENDCHAR
STARTCHAR uni11F7
ENCODING 4599
SWIDTH 992 0
DWIDTH 16 0
BBX 16 16 0 0
BITMAP
0000
0000
0000
0000
0000
0000
0000
08F8
7FD8
36D8
36F8
1C00
0000
0000
0000
0000
ENDCHAR
STARTCHAR uni11F8
ENCODING 4600
SWIDTH 992 0
DWIDTH 16 0
BBX 16 16 0 0
BITMAP
0000
0000
0000
0000
0000
0000
0000
08D8
7FF8
36D8
36F8
1C00
0000
0000
0000
0000
ENDCHAR
STARTCHAR uni11F9
ENCODING 4601
SWIDTH 992 0
DWIDTH 16 0
BBX 16 16 0 0
BITMAP
0000
0000
0000
0000
0000
0000
0FF0
0000
03C0
0660
0660
03C0
0000
0000
0000
0000
ENDCHAR
STARTCHAR uni11FA
ENCODING 4602
SWIDTH 992 0
DWIDTH 16 0
BBX 16 16 0 0
BITMAP
0000
0000
0000
0000
7E00
0000
7E00
0000
7E00
0000
7E00
0000
7E00
0000
0000
0000
ENDCHAR
STARTCHAR uni11FB
ENCODING 4603
SWIDTH 992 0
DWIDTH 16 0
BBX 16 16 0 0
BITMAP
0000
0000
0000
0000
7E00
0000
7E00
0000
7E00
0000
7E00
0000
7E00
0000
0000
0000
ENDCHAR
STARTCHAR uni11FC
ENCODING 4604
SWIDTH 992 0
DWIDTH 16 0
BBX 16 16 0 0
BITMAP
0000
0000
0000
0000
7E00
0000
7E00
0000
7E00
0000
7E00
0000
7E00
0000
0000
0000
ENDCHAR
STARTCHAR uni11FD
ENCODING 4605
SWIDTH 992 0
DWIDTH 16 0
BBX 16 16 0 0
BITMAP
0000
0000
0000
0000
7E00
0000
7E00
0000
7E00
0000
7E00
0000
7E00
0000
0000
0000
ENDCHAR
STARTCHAR uni11FE
ENCODING 4606
SWIDTH 992 0
DWIDTH 16 0
BBX 16 16 0 0
BITMAP
0000
0000
0000
0000
7E00
0000
7E00
0000
7E00
0000
7E00
0000
7E00
0000
0000
0000
ENDCHAR
STARTCHAR uni11FF
ENCODING 4607
SWIDTH 992 0
DWIDTH 16 0
BBX 16 16 0 0
BITMAP
0000
0000
0000
0000
7E00
0000
7E00
0000
7E00
0000
7E00
0000
7E00
0000
0000
0000
ENDCHAR
STARTCHAR uni3130
ENCODING 12592
SWIDTH 992 0
DWIDTH 16 0
BBX 16 16 0 0
BITMAP
0000
0000
0000
0000
7E00
0000
7E00
0000
7E00
0000
7E00
0000
7E00
0000
0000
0000
ENDCHAR
STARTCHAR uni3131
ENCODING 12593
SWIDTH 992 0
DWIDTH 16 0
BBX 16 16 0 0
BITMAP
0000
0000
0000
0000
0000
3FFC
000C
000C
000C
000C
000C
0018
0000
0000
0000
0000
ENDCHAR
STARTCHAR uni3132
ENCODING 12594
SWIDTH 992 0
DWIDTH 16 0
BBX 16 16 0 0
BITMAP
0000
0000
0000
0000
0000
3E7C
060C
060C
060C
060C
060C
0C18
0000
0000
0000
0000
ENDCHAR
STARTCHAR uni3133
ENCODING 12595
SWIDTH 992 0
DWIDTH 16 0
BBX 16 16 0 0
BITMAP
0000
0000
0000
0000
0000
3F30
0330
0330
0330
0330
0378
06CC
0000
0000
0000
0000
ENDCHAR
STARTCHAR uni3134
ENCODING 12596
SWIDTH 992 0
DWIDTH 16 0
BBX 16 16 0 0
BITMAP
0000
0000
0000
0000
0000
3000
3000
3000
3000
3000
3000
1FFC
0000
0000
0000
0000
ENDCHAR
STARTCHAR uni3135
ENCODING 12597
SWIDTH 992 0
DWIDTH 16 0
BBX 16 16 0 0
BITMAP
0000
0000
0000
0000
0000
30FC
3030
3030
3030
3030
3078
1ECC
0000
0000
0000
0000
ENDCHAR
STARTCHAR uni3136
ENCODING 12598
SWIDTH 992 0
DWIDTH 16 0
BBX 16 16 0 0
BITMAP
0000
0000
0000
0000
0000
3030
30FC
3078
30CC
30CC
30CC
1F78
0000
0000
0000
0000
ENDCHAR
STARTCHAR uni3137
ENCODING 12599
SWIDTH 992 0
DWIDTH 16 0
BBX 16 16 0 0
BITMAP
0000
0000
0000
0000
0000
3FFC
3000
3000
3000
3000
3000
1FFC
0000
0000
0000
0000
ENDCHAR
STARTCHAR uni3138
ENCODING 12600
SWIDTH 992 0
DWIDTH 16 0
BBX 16 16 0 0
BITMAP
0000
0000
0000
0000
0000
3EFC
30C0
30C0
30C0
30C0
30C0
1EFC
0000
0000
0000
0000
ENDCHAR
STARTCHAR uni3139
ENCODING 12601
SWIDTH 992 0
DWIDTH 16 0
BBX 16 16 0 0
BITMAP
0000
0000
0000
0000
0000
3FFC
000C
000C
3FFC
3000
3000
1FFC
0000
0000
0000
0000
ENDCHAR
STARTCHAR uni313A
ENCODING 12602
SWIDTH 992 0
DWIDTH 16 0
BBX 16 16 0 0
BITMAP
0000
0000
0000
0000
0000
3F7C
030C
030C
3F0C
300C
300C
1F08
0000
0000
0000
0000
ENDCHAR
STARTCHAR uni313B
ENCODING 12603
SWIDTH 992 0
DWIDTH 16 0
BBX 16 16 0 0
BITMAP
0000
0000
0000
0000
0000
3F7C
036C
036C
3F6C
306C
306C
1F38
0000
0000
0000
0000
ENDCHAR
STARTCHAR uni313C
ENCODING 12604
SWIDTH 992 0
DWIDTH 16 0
BBX 16 16 0 0
BITMAP
0000
0000
0000
0000
0000
3F6C
036C
037C
3F6C
306C
306C
1F38
0000
0000
0000
0000
ENDCHAR
STARTCHAR uni313D
ENCODING 12605
SWIDTH 992 0
DWIDTH 16 0
BBX 16 16 0 0
BITMAP
0000
0000
0000
0000
0000
3F18
0318
0318
3F18
3018
303C
1F66
0000
0000
0000
0000
ENDCHAR
STARTCHAR uni313E
ENCODING 12606
SWIDTH 992 0
DWIDTH 16 0
BBX 16 16 0 0
BITMAP
0000
0000
0000
0000
0000
3F7C
0360
0360
3F7C
3060
3060
1F3C
0000
0000
0000
0000
ENDCHAR
STARTCHAR uni313F
ENCODING 12607
SWIDTH 992 0
DWIDTH 16 0
BBX 16 16 0 0
BITMAP
0000
0000
0000
0000
0000
3FFC
06D8
06D8
3ED8
30D8
30D8
1FFC
0000
0000
0000
0000
ENDCHAR
STARTCHAR uni3140
ENCODING 12608
SWIDTH 992 0
DWIDTH 16 0
BBX 16 16 0 0
BITMAP
0000
0000
0000
0000
0000
3F30
03FC
0378
3FCC
30CC
30CC
1F78
0000
0000
0000
0000
ENDCHAR
STARTCHAR uni3141
ENCODING 12609
SWIDTH 992 0
DWIDTH 16 0
BBX 16 16 0 0
BITMAP
0000
0000
0000
0000
0000
3FFC
300C
300C
300C
300C
300C
1FF8
0000
0000
0000
0000
ENDCHAR
STARTCHAR uni3142
ENCODING 12610
SWIDTH 992 0
DWIDTH 16 0
BBX 16 16 0 0
BITMAP
0000
0000
0000
0000
0000
300C
300C
300C
3FFC
300C
300C
1FF8
0000
0000
0000
0000
ENDCHAR
STARTCHAR uni3143
ENCODING 12611
SWIDTH 992 0
DWIDTH 16 0
BBX 16 16 0 0
BITMAP
0000
0000
0000
0000
0000
318C
318C
318C
3FFC
318C
318C
1FF8
0000
0000
0000
0000
ENDCHAR
STARTCHAR uni3144
ENCODING 12612
SWIDTH 992 0
DWIDTH 16 0
BBX 16 16 0 0
BITMAP
0000
0000
0000
0000
0000
3318
3318
3318
3F18
3318
333C
1E66
0000
0000
0000
0000
ENDCHAR
STARTCHAR uni3145
ENCODING 12613
SWIDTH 992 0
DWIDTH 16 0
BBX 16 16 0 0
BITMAP
0000
0000
0000
0000
0000
0180
0180
0180
0180
03C0
0660
3C3C
0000
0000
0000
0000
ENDCHAR
STARTCHAR uni3146
ENCODING 12614
SWIDTH 992 0
DWIDTH 16 0
BBX 16 16 0 0
BITMAP
0000
0000
0000
0000
0000
0660
0660
0660
0660
0FF0
1998
330C
0000
0000
0000
0000
ENDCHAR
STARTCHAR uni3147
ENCODING 12615
SWIDTH 992 0
DWIDTH 16 0
BBX 16 16 0 0
BITMAP
0000
0000
0000
0000
0000
0FF0
1818
300C
300C
300C
1818
0FF0
0000
0000
0000
0000
ENDCHAR
STARTCHAR uni3148
ENCODING 12616
SWIDTH 992 0
DWIDTH 16 0
BBX 16 16 0 0
BITMAP
0000
0000
0000
0000
0000
3FFC
0180
0180
0180
03C0
0660
3C3C
0000
0000
0000
0000
ENDCHAR
STARTCHAR uni3149
ENCODING 12617
SWIDTH 992 0
DWIDTH 16 0
BBX 16 16 0 0
BITMAP
0000
0000
0000
0000
0000
3FFC
0660
0660
0660
0FF0
1998
330C
0000
0000
0000
0000
ENDCHAR
STARTCHAR uni314A
ENCODING 12618
SWIDTH 992 0
DWIDTH 16 0
BBX 16 16 0 0
BITMAP
0000
0000
0000
0000
0180
0180
3FFC
0180
0180
03C0
0660
3C3C
0000
0000
0000
0000
ENDCHAR
STARTCHAR uni314B
ENCODING 12619
SWIDTH 992 0
DWIDTH 16 0
BBX 16 16 0 0
BITMAP
0000
0000
0000
0000
0000
3FFC
000C
000C
3FFC
000C
000C
0018
0000
0000
0000
0000
ENDCHAR
STARTCHAR uni314C
ENCODING 12620
SWIDTH 992 0
DWIDTH 16 0
BBX 16 16 0 0
BITMAP
0000
0000
0000
0000
0000
3FFC
3000
3000
3FF8
3000
3000
1FFC
0000
0000
0000
0000
ENDCHAR
STARTCHAR uni314D
ENCODING 12621
SWIDTH 992 0
DWIDTH 16 0
BBX 16 16 0 0
BITMAP
0000
0000
0000
0000
0000
3FFC
0C30
0C30
0C30
0C30
0C30
3FFC
0000
0000
0000
0000
ENDCHAR
STARTCHAR uni314E
ENCODING 12622
SWIDTH 992 0
DWIDTH 16 0
BBX 16 16 0 0
BITMAP
0000
0000
0000
0000
0180
0180
3FFC
0FF0
381C
300C
381C
0FF0
0000
0000
0000
0000
ENDCHAR
STARTCHAR uni314F
ENCODING 12623
SWIDTH 992 0
DWIDTH 16 0
BBX 16 16 0 0
BITMAP
0000
0000
0300
0300
0300
0300
0300
0300
03E0
0300
0300
0300
0300
0300
0300
0000
ENDCHAR
STARTCHAR uni3150
ENCODING 12624
SWIDTH 992 0
DWIDTH 16 0
BBX 16 16 0 0
BITMAP
0000
0000
0360
0360
0360
0360
0360
0360
03E0
0360
0360
0360
0360
0360
0360
0000
ENDCHAR
STARTCHAR uni3151
ENCODING 12625
SWIDTH 992 0
DWIDTH 16 0
BBX 16 16 0 0
BITMAP
0000
0000
0300
0300
0300
0300
03E0
0300
0300
0300
03E0
0300
0300
0300
0300
0000
ENDCHAR
STARTCHAR uni3152
ENCODING 12626
SWIDTH 992 0
DWIDTH 16 0
BBX 16 16 0 0
BITMAP
0000
0000
0360
0360
0360
0360
03E0
0360
0360
0360
03E0
0360
0360
0360
0360
0000
ENDCHAR
STARTCHAR uni3153
ENCODING 12627
SWIDTH 992 0
DWIDTH 16 0
BBX 16 16 0 0
BITMAP
0000
0000
00C0
00C0
00C0
00C0
00C0
00C0
07C0
00C0
00C0
00C0
00C0
00C0
00C0
0000
ENDCHAR
STARTCHAR uni3154
ENCODING 12628
SWIDTH 992 0
DWIDTH 16 0
BBX 16 16 0 0
BITMAP
0000
0000
0360
0360
0360
0360
0360
0360
0F60
0360
0360
0360
0360
0360
0360
0000
ENDCHAR
STARTCHAR uni3155
ENCODING 12629
SWIDTH 992 0
DWIDTH 16 0
BBX 16 16 0 0
BITMAP
0000
0000
00C0
00C0
00C0
00C0
07C0
00C0
00C0
00C0
07C0
00C0
00C0
00C0
00C0
0000
ENDCHAR
STARTCHAR uni3156
ENCODING 12630
SWIDTH 992 0
DWIDTH 16 0
BBX 16 16 0 0
BITMAP
0000
0000
0360
0360
0360
0360
0F60
0360
0360
0360
0F60
0360
0360
0360
0360
0000
ENDCHAR
STARTCHAR uni3157
ENCODING 12631
SWIDTH 992 0
DWIDTH 16 0
BBX 16 16 0 0
BITMAP
0000
0000
0000
0000
0000
0000
0000
0000
0000
0180
0180
0180
0180
7FFE
0000
0000
ENDCHAR
STARTCHAR uni3158
ENCODING 12632
SWIDTH 992 0
DWIDTH 16 0
BBX 16 16 0 0
BITMAP
0000
0000
0018
0018
0018
0018
0018
0018
0C1F
0C18
0C18
0C18
0C18
7FF8
0018
0000
ENDCHAR
STARTCHAR uni3159
ENCODING 12633
SWIDTH 992 0
DWIDTH 16 0
BBX 16 16 0 0
BITMAP
0000
0000
0036
0036
0036
0036
0036
0036
0C3E
0C36
0C36
0C36
0C36
7FF6
0036
0000
ENDCHAR
STARTCHAR uni315A
ENCODING 12634
SWIDTH 992 0
DWIDTH 16 0
BBX 16 16 0 0
BITMAP
0000
0000
000C
000C
000C
000C
000C
000C
0C0C
0C0C
0C0C
0C0C
0C0C
7FFC
000C
0000
ENDCHAR
STARTCHAR uni315B
ENCODING 12635
SWIDTH 992 0
DWIDTH 16 0
BBX 16 16 0 0
BITMAP
0000
0000
0000
0000
0000
0000
0000
0000
0000
0C30
0C30
0C30
0C30
7FFE
0000
0000
ENDCHAR
STARTCHAR uni315C
ENCODING 12636
SWIDTH 992 0
DWIDTH 16 0
BBX 16 16 0 0
BITMAP
0000
0000
0000
0000
0000
0000
0000
0000
0000
0000
7FFE
0180
0180
0180
0180
0000
ENDCHAR
STARTCHAR uni315D
ENCODING 12637
SWIDTH 992 0
DWIDTH 16 0
BBX 16 16 0 0
BITMAP
0000
0000
000C
000C
000C
000C
000C
000C
000C
7FFC
0C0C
0CFC
0C0C
0C0C
0C0C
0000
ENDCHAR
STARTCHAR uni315E
ENCODING 12638
SWIDTH 992 0
DWIDTH 16 0
BBX 16 16 0 0
BITMAP
0000
0000
0036
0036
0036
0036
0036
0036
0036
7FF6
0C36
0CF6
0C36
0C36
0C36
0000
ENDCHAR
STARTCHAR uni315F
ENCODING 12639
SWIDTH 992 0
DWIDTH 16 0
BBX 16 16 0 0
BITMAP
0000
0000
000C
000C
000C
000C
000C
000C
000C
7FFC
0C0C
0C0C
0C0C
0C0C
0C0C
0000
ENDCHAR
STARTCHAR uni3160
ENCODING 12640
SWIDTH 992 0
DWIDTH 16 0
BBX 16 16 0 0
BITMAP
0000
0000
0000
0000
0000
0000
0000
0000
0000
0000
7FFE
0C30
0C30
0C30
0C30
0000
ENDCHAR
STARTCHAR uni3161
ENCODING 12641
SWIDTH 992 0
DWIDTH 16 0
BBX 16 16 0 0
BITMAP
0000
0000
0000
0000
0000
0000
0000
0000
0000
0000
0000
0000
0000
7FFE
0000
0000
ENDCHAR
STARTCHAR uni3162
ENCODING 12642
SWIDTH 992 0
DWIDTH 16 0
BBX 16 16 0 0
BITMAP
0000
0000
000C
000C
000C
000C
000C
000C
000C
000C
000C
000C
000C
7FFC
000C
0000
ENDCHAR
STARTCHAR uni3163
ENCODING 12643
SWIDTH 992 0
DWIDTH 16 0
BBX 16 16 0 0
BITMAP
0000
0000
0180
0180
0180
0180
0180
0180
0180
0180
0180
0180
0180
0180
0180
0000
ENDCHAR
STARTCHAR uni3164
ENCODING 12644
SWIDTH 992 0
DWIDTH 16 0
BBX 16 16 0 0
BITMAP
0000
0000
0000
0000
7E00
0000
7E00
0000
7E00
0000
7E00
0000
7E00
0000
0000
0000
ENDCHAR
STARTCHAR uni3165
ENCODING 12645
SWIDTH 992 0
DWIDTH 16 0
BBX 16 16 0 0
BITMAP
0000
0000
0000
0000
0000
0000
0CC0
0CC0
0CC0
0CC0
0FF0
0000
0000
0000
0000
0000
ENDCHAR
STARTCHAR uni3166
ENCODING 12646
SWIDTH 992 0
DWIDTH 16 0
BBX 16 16 0 0
BITMAP
0000
0000
0000
0000
0000
0000
0000
18F8
18C0
18C0
1FF8
0000
0000
0000
0000
0000
ENDCHAR
STARTCHAR uni3167
ENCODING 12647
SWIDTH 992 0
DWIDTH 16 0
BBX 16 16 0 0
BITMAP
0000
0000
0000
0000
0000
0000
0000
3040
30E0
31B0
3F18
0000
0000
0000
0000
0000
ENDCHAR
STARTCHAR uni3168
ENCODING 12648
SWIDTH 992 0
DWIDTH 16 0
BBX 16 16 0 0
BITMAP
0000
0000
0000
0000
0000
0000
0000
3040
30E0
31B0
3FF8
0000
0000
0000
0000
0000
ENDCHAR
STARTCHAR uni3169
ENCODING 12649
SWIDTH 992 0
DWIDTH 16 0
BBX 16 16 0 0
BITMAP
0000
0000
0000
0000
0000
0000
3C18
0F98
3DBC
31A4
3DA4
0000
0000
0000
0000
0000
ENDCHAR
STARTCHAR uni316A
ENCODING 12650
SWIDTH 992 0
DWIDTH 16 0
BBX 16 16 0 0
BITMAP
0000
0000
0000
0000
0000
0000
1EF0
06C0
1EC0
18F0
1E00
0000
0000
0000
0000
0000
ENDCHAR
STARTCHAR uni316B
ENCODING 12651
SWIDTH 992 0
DWIDTH 16 0
BBX 16 16 0 0
BITMAP
0000
0000
0000
0000
0000
06C0
3ED8
1FD8
3EFC
37F4
3834
0000
0000
0000
0000
0000
ENDCHAR
STARTCHAR uni316C
ENCODING 12652
SWIDTH 992 0
DWIDTH 16 0
BBX 16 16 0 0
BITMAP
0000
0000
0000
0000
0000
0000
0000
1E20
0650
1ED8
18F8
1E00
0000
0000
0000
0000
ENDCHAR
STARTCHAR uni316D
ENCODING 12653
SWIDTH 992 0
DWIDTH 16 0
BBX 16 16 0 0
BITMAP
0000
0000
0000
0000
0000
0000
01F8
3C00
0CF0
3D98
3198
3CF0
0000
0000
0000
0000
ENDCHAR
STARTCHAR uni316E
ENCODING 12654
SWIDTH 992 0
DWIDTH 16 0
BBX 16 16 0 0
BITMAP
0000
0000
0000
0000
0000
0000
0000
3ED8
36F8
36D8
3EF8
0000
0000
0000
0000
0000
ENDCHAR
STARTCHAR uni316F
ENCODING 12655
SWIDTH 992 0
DWIDTH 16 0
BBX 16 16 0 0
BITMAP
0000
0000
0000
0000
0000
0000
0000
1F30
1B30
1B30
1F78
00CC
0000
0000
0000
0000
ENDCHAR
STARTCHAR uni3170
ENCODING 12656
SWIDTH 992 0
DWIDTH 16 0
BBX 16 16 0 0
BITMAP
0000
0000
0000
0000
0000
0000
0000
3E60
36F0
3798
3FF8
0000
0000
0000
0000
0000
ENDCHAR
STARTCHAR uni3171
ENCODING 12657
SWIDTH 992 0
DWIDTH 16 0
BBX 16 16 0 0
BITMAP
0000
0000
0000
0000
0000
0000
0FF0
0C30
0FF0
03C0
0660
03C0
0000
0000
0000
0000
ENDCHAR
STARTCHAR uni3172
ENCODING 12658
SWIDTH 992 0
DWIDTH 16 0
BBX 16 16 0 0
BITMAP
0000
0000
0000
0000
0000
0000
0DF0
0D30
0F30
0D30
0F30
0000
0000
0000
0000
0000
ENDCHAR
STARTCHAR uni3173
ENCODING 12659
SWIDTH 992 0
DWIDTH 16 0
BBX 16 16 0 0
BITMAP
0000
0000
0000
0000
0000
0000
1AF0
1AC0
1EC0
1AC0
1EF0
0000
0000
0000
0000
0000
ENDCHAR
STARTCHAR uni3174
ENCODING 12660
SWIDTH 992 0
DWIDTH 16 0
BBX 16 16 0 0
BITMAP
0000
0000
0000
0000
0000
0000
1578
1518
1D18
1698
1E98
0000
0000
0000
0000
0000
ENDCHAR
STARTCHAR uni3175
ENCODING 12661
SWIDTH 992 0
DWIDTH 16 0
BBX 16 16 0 0
BITMAP
0000
0000
0000
0000
0000
0000
1578
1560
1D60
16E0
1EF8
0000
0000
0000
0000
0000
ENDCHAR
STARTCHAR uni3176
ENCODING 12662
SWIDTH 992 0
DWIDTH 16 0
BBX 16 16 0 0
BITMAP
0000
0000
0000
0000
0000
0000
0DF0
0D60
0F60
0DF0
0F90
0000
0000
0000
0000
0000
ENDCHAR
STARTCHAR uni3177
ENCODING 12663
SWIDTH 992 0
DWIDTH 16 0
BBX 16 16 0 0
BITMAP
0000
0000
0000
0000
0000
0000
1AF0
1AC0
1EF0
1AC0
1EF0
0000
0000
0000
0000
0000
ENDCHAR
STARTCHAR uni3178
ENCODING 12664
SWIDTH 992 0
DWIDTH 16 0
BBX 16 16 0 0
BITMAP
0000
0000
0000
0000
0000
0C30
0FF0
0C30
0FF0
0660
0660
03C0
0000
0000
0000
0000
ENDCHAR
STARTCHAR uni3179
ENCODING 12665
SWIDTH 992 0
DWIDTH 16 0
BBX 16 16 0 0
BITMAP
0000
0000
0000
0000
0000
1990
1FF0
1990
1FF0
0C60
0C60
07C0
0000
0000
0000
0000
ENDCHAR
STARTCHAR uni317A
ENCODING 12666
SWIDTH 992 0
DWIDTH 16 0
BBX 16 16 0 0
BITMAP
0000
0000
0000
0000
0000
0000
06F0
0630
0F30
0930
0930
0000
0000
0000
0000
0000
ENDCHAR
STARTCHAR uni317B
ENCODING 12667
SWIDTH 992 0
DWIDTH 16 0
BBX 16 16 0 0
BITMAP
0000
0000
0000
0000
0000
0000
0660
0660
0F60
0960
0978
0000
0000
0000
0000
0000
ENDCHAR
STARTCHAR uni317C
ENCODING 12668
SWIDTH 992 0
DWIDTH 16 0
BBX 16 16 0 0
BITMAP
0000
0000
0000
0000
0000
0000
0CF0
0CC0
1EC0
12C0
12F0
0000
0000
0000
0000
0000
ENDCHAR
STARTCHAR uni317D
ENCODING 12669
SWIDTH 992 0
DWIDTH 16 0
BBX 16 16 0 0
BITMAP
0000
0000
0000
0000
0000
0000
0CD0
0CD0
1EF0
12D0
12F0
0000
0000
0000
0000
0000
ENDCHAR
STARTCHAR uni317E
ENCODING 12670
SWIDTH 992 0
DWIDTH 16 0
BBX 16 16 0 0
BITMAP
0000
0000
0000
0000
0000
0000
06F0
0660
0F60
0DF0
0D90
0000
0000
0000
0000
0000
ENDCHAR
STARTCHAR uni317F
ENCODING 12671
SWIDTH 992 0
DWIDTH 16 0
BBX 16 16 0 0
BITMAP
0000
0000
0000
0000
0000
0000
0180
03C0
0660
0C30
0FF0
0000
0000
0000
0000
0000
ENDCHAR
STARTCHAR uni3180
ENCODING 12672
SWIDTH 992 0
DWIDTH 16 0
BBX 16 16 0 0
BITMAP
0000
0000
0000
0000
0000
0000
0EE0
1BB0
1BB0
1BB0
0EE0
0000
0000
0000
0000
0000
ENDCHAR
STARTCHAR uni3181
ENCODING 12673
SWIDTH 992 0
DWIDTH 16 0
BBX 16 16 0 0
BITMAP
0000
0000
0000
0000
0000
0180
0180
07E0
0C30
0C30
0C30
07E0
0000
0000
0000
0000
ENDCHAR
STARTCHAR uni3182
ENCODING 12674
SWIDTH 992 0
DWIDTH 16 0
BBX 16 16 0 0
BITMAP
0000
0000
0000
0000
0000
03C0
0660
0C30
0C30
0C30
0660
03C0
0000
0000
0000
0000
ENDCHAR
STARTCHAR uni3183
ENCODING 12675
SWIDTH 992 0
DWIDTH 16 0
BBX 16 16 0 0
BITMAP
0000
0000
0000
0000
0000
0000
0E30
1B30
1B78
1B68
0E68
0000
0000
0000
0000
0000
ENDCHAR
STARTCHAR uni3184
ENCODING 12676
SWIDTH 992 0
DWIDTH 16 0
BBX 16 16 0 0
BITMAP
0000
0000
0000
0000
0000
1FF0
06C0
1FF0
07C0
0C60
0C60
07C0
0000
0000
0000
0000
ENDCHAR
STARTCHAR uni3185
ENCODING 12677
SWIDTH 992 0
DWIDTH 16 0
BBX 16 16 0 0
BITMAP
0000
0000
0000
0000
0000
0000
0EE0
0000
3FF8
1BB0
1BB0
0EE0
0000
0000
0000
0000
ENDCHAR
STARTCHAR uni3186
ENCODING 12678
SWIDTH 992 0
DWIDTH 16 0
BBX 16 16 0 0
BITMAP
0000
0000
0000
0000
0000
1FF0
0000
07C0
0C60
0C60
0C60
07C0
0000
0000
0000
0000
ENDCHAR
STARTCHAR uni3187
ENCODING 12679
SWIDTH 992 0
DWIDTH 16 0
BBX 16 16 0 0
BITMAP
0000
0000
0018
0018
0018
0018
001F
0018
1B18
1B1F
1B18
1B18
1B18
7FF8
0018
0000
ENDCHAR
STARTCHAR uni3188
ENCODING 12680
SWIDTH 992 0
DWIDTH 16 0
BBX 16 16 0 0
BITMAP
0000
0000
0036
0036
0036
0036
003E
0036
0036
003E
1B36
1B36
1B36
7FF6
0036
0000
ENDCHAR
STARTCHAR uni3189
ENCODING 12681
SWIDTH 992 0
DWIDTH 16 0
BBX 16 16 0 0
BITMAP
0000
0000
000C
000C
000C
000C
000C
000C
000C
000C
0D8C
0D8C
0D8C
7FFC
000C
0000
ENDCHAR
STARTCHAR uni318A
ENCODING 12682
SWIDTH 992 0
DWIDTH 16 0
BBX 16 16 0 0
BITMAP
0000
0000
000C
000C
003C
000C
000C
003C
000C
000C
7FFC
0D8C
0D8C
0D8C
0D8C
0000
ENDCHAR
STARTCHAR uni318B
ENCODING 12683
SWIDTH 992 0
DWIDTH 16 0
BBX 16 16 0 0
BITMAP
0000
0000
0036
0036
00F6
0036
0036
00F6
0036
0036
7FF6
1B36
1B36
1B36
1B36
0000
ENDCHAR
STARTCHAR uni318C
ENCODING 12684
SWIDTH 992 0
DWIDTH 16 0
BBX 16 16 0 0
BITMAP
0000
0000
000C
000C
000C
000C
000C
000C
000C
7FFC
0D8C
0D8C
0D8C
0D8C
0D8C
0000
ENDCHAR
STARTCHAR uni318D
ENCODING 12685
SWIDTH 992 0
DWIDTH 16 0
BBX 16 16 0 0
BITMAP
0000
0000
0000
0000
0000
0000
0000
0000
0000
0000
0180
0180
0000
0000
0000
0000
ENDCHAR
STARTCHAR uni318E
ENCODING 12686
SWIDTH 992 0
DWIDTH 16 0
BBX 16 16 0 0
BITMAP
0000
0000
000C
000C
000C
000C
000C
000C
000C
000C
018C
018C
000C
000C
000C
0000
ENDCHAR
STARTCHAR uni318F
ENCODING 12687
SWIDTH 992 0
DWIDTH 16 0
BBX 16 16 0 0
BITMAP
0000
0000
0000
0000
7E00
0000
7E00
0000
7E00
0000
7E00
0000
7E00
0000
0000
0000
ENDCHAR
STARTCHAR uniA960
ENCODING 43360
SWIDTH 992 0
DWIDTH 16 0
BBX 16 16 0 0
BITMAP
0000
0000
0000
0000
7E00
0000
7E00
0000
7E00
0000
7E00
0000
7E00
0000
0000
0000
ENDCHAR
STARTCHAR uniA961
ENCODING 43361
SWIDTH 992 0
DWIDTH 16 0
BBX 16 16 0 0
BITMAP
0000
0000
0000
0000
7E00
0000
7E00
0000
7E00
0000
7E00
0000
7E00
0000
0000
0000
ENDCHAR
STARTCHAR uniA962
ENCODING 43362
SWIDTH 992 0
DWIDTH 16 0
BBX 16 16 0 0
BITMAP
0000
0000
0000
0000
7E00
0000
7E00
0000
7E00
0000
7E00
0000
7E00
0000
0000
0000
ENDCHAR
STARTCHAR uniA963
ENCODING 43363
SWIDTH 992 0
DWIDTH 16 0
BBX 16 16 0 0
BITMAP
0000
0000
0000
0000
7E00
0000
7E00
0000
7E00
0000
7E00
0000
7E00
0000
0000
0000
ENDCHAR
STARTCHAR uniA964
ENCODING 43364
SWIDTH 992 0
DWIDTH 16 0
BBX 16 16 0 0
BITMAP
0000
0000
0000
0000
7E00
0000
7E00
0000
7E00
0000
7E00
0000
7E00
0000
0000
0000
ENDCHAR
STARTCHAR uniA965
ENCODING 43365
SWIDTH 992 0
DWIDTH 16 0
BBX 16 16 0 0
BITMAP
0000
0000
0000
0000
7E00
0000
7E00
0000
7E00
0000
7E00
0000
7E00
0000
0000
0000
ENDCHAR
STARTCHAR uniA966
ENCODING 43366
SWIDTH 992 0
DWIDTH 16 0
BBX 16 16 0 0
BITMAP
0000
0000
0000
0000
7E00
0000
7E00
0000
7E00
0000
7E00
0000
7E00
0000
0000
0000
ENDCHAR
STARTCHAR uniA967
ENCODING 43367
SWIDTH 992 0
DWIDTH 16 0
BBX 16 16 0 0
BITMAP
0000
0000
0000
0000
7E00
0000
7E00
0000
7E00
0000
7E00
0000
7E00
0000
0000
0000
ENDCHAR
STARTCHAR uniA968
ENCODING 43368
SWIDTH 992 0
DWIDTH 16 0
BBX 16 16 0 0
BITMAP
0000
0000
0000
0000
7E00
0000
7E00
0000
7E00
0000
7E00
0000
7E00
0000
0000
0000
ENDCHAR
STARTCHAR uniA969
ENCODING 43369
SWIDTH 992 0
DWIDTH 16 0
BBX 16 16 0 0
BITMAP
0000
0000
0000
0000
7E00
0000
7E00
0000
7E00
0000
7E00
0000
7E00
0000
0000
0000
ENDCHAR
STARTCHAR uniA96A
ENCODING 43370
SWIDTH 992 0
DWIDTH 16 0
BBX 16 16 0 0
BITMAP
0000
0000
0000
0000
7E00
0000
7E00
0000
7E00
0000
7E00
0000
7E00
0000
0000
0000
ENDCHAR
STARTCHAR uniA96B
ENCODING 43371
SWIDTH 992 0
DWIDTH 16 0
BBX 16 16 0 0
BITMAP
0000
0000
0000
0000
7E00
0000
7E00
0000
7E00
0000
7E00
0000
7E00
0000
0000
0000
ENDCHAR
STARTCHAR uniA96C
ENCODING 43372
SWIDTH 992 0
DWIDTH 16 0
BBX 16 16 0 0
BITMAP
0000
0000
0000
0000
7E00
0000
7E00
0000
7E00
0000
7E00
0000
7E00
0000
0000
0000
ENDCHAR
STARTCHAR uniA96D
ENCODING 43373
SWIDTH 992 0
DWIDTH 16 0
BBX 16 16 0 0
BITMAP
0000
0000
0000
0000
7E00
0000
7E00
0000
7E00
0000
7E00
0000
7E00
0000
0000
0000
ENDCHAR
STARTCHAR uniA96E
ENCODING 43374
SWIDTH 992 0
DWIDTH 16 0
BBX 16 16 0 0
BITMAP
0000
0000
0000
0000
7E00
0000
7E00
0000
7E00
0000
7E00
0000
7E00
0000
0000
0000
ENDCHAR
STARTCHAR uniA96F
ENCODING 43375
SWIDTH 992 0
DWIDTH 16 0
BBX 16 16 0 0
BITMAP
0000
0000
0000
0000
7E00
0000
7E00
0000
7E00
0000
7E00
0000
7E00
0000
0000
0000
ENDCHAR
STARTCHAR uniA970
ENCODING 43376
SWIDTH 992 0
DWIDTH 16 0
BBX 16 16 0 0
BITMAP
0000
0000
0000
0000
7E00
0000
7E00
0000
7E00
0000
7E00
0000
7E00
0000
0000
0000
ENDCHAR
STARTCHAR uniA971
ENCODING 43377
SWIDTH 992 0
DWIDTH 16 0
BBX 16 16 0 0
BITMAP
0000
0000
0000
0000
7E00
0000
7E00
0000
7E00
0000
7E00
0000
7E00
0000
0000
0000
ENDCHAR
STARTCHAR uniA972
ENCODING 43378
SWIDTH 992 0
DWIDTH 16 0
BBX 16 16 0 0
BITMAP
0000
0000
0000
0000
7E00
0000
7E00
0000
7E00
0000
7E00
0000
7E00
0000
0000
0000
ENDCHAR
STARTCHAR uniA973
ENCODING 43379
SWIDTH 992 0
DWIDTH 16 0
BBX 16 16 0 0
BITMAP
0000
0000
0000
0000
7E00
0000
7E00
0000
7E00
0000
7E00
0000
7E00
0000
0000
0000
ENDCHAR
STARTCHAR uniA974
ENCODING 43380
SWIDTH 992 0
DWIDTH 16 0
BBX 16 16 0 0
BITMAP
0000
0000
0000
0000
7E00
0000
7E00
0000
7E00
0000
7E00
0000
7E00
0000
0000
0000
ENDCHAR
STARTCHAR uniA975
ENCODING 43381
SWIDTH 992 0
DWIDTH 16 0
BBX 16 16 0 0
BITMAP
0000
0000
0000
0000
7E00
0000
7E00
0000
7E00
0000
7E00
0000
7E00
0000
0000
0000
ENDCHAR
STARTCHAR uniA976
ENCODING 43382
SWIDTH 992 0
DWIDTH 16 0
BBX 16 16 0 0
BITMAP
0000
0000
0000
0000
7E00
0000
7E00
0000
7E00
0000
7E00
0000
7E00
0000
0000
0000
ENDCHAR
STARTCHAR uniA977
ENCODING 43383
SWIDTH 992 0
DWIDTH 16 0
BBX 16 16 0 0
BITMAP
0000
0000
0000
0000
7E00
0000
7E00
0000
7E00
0000
7E00
0000
7E00
0000
0000
0000
ENDCHAR
STARTCHAR uniA978
ENCODING 43384
SWIDTH 992 0
DWIDTH 16 0
BBX 16 16 0 0
BITMAP
0000
0000
0000
0000
7E00
0000
7E00
0000
7E00
0000
7E00
0000
7E00
0000
0000
0000
ENDCHAR
STARTCHAR uniA979
ENCODING 43385
SWIDTH 992 0
DWIDTH 16 0
BBX 16 16 0 0
BITMAP
0000
0000
0000
0000
7E00
0000
7E00
0000
7E00
0000
7E00
0000
7E00
0000
0000
0000
ENDCHAR
STARTCHAR uniA97A
ENCODING 43386
SWIDTH 992 0
DWIDTH 16 0
BBX 16 16 0 0
BITMAP
0000
0000
0000
0000
7E00
0000
7E00
0000
7E00
0000
7E00
0000
7E00
0000
0000
0000
ENDCHAR
STARTCHAR uniA97B
ENCODING 43387
SWIDTH 992 0
DWIDTH 16 0
BBX 16 16 0 0
BITMAP
0000
0000
0000
0000
7E00
0000
7E00
0000
7E00
0000
7E00
0000
7E00
0000
0000
0000
ENDCHAR
STARTCHAR uniA97C
ENCODING 43388
SWIDTH 992 0
DWIDTH 16 0
BBX 16 16 0 0
BITMAP
0000
0000
0000
0000
7E00
0000
7E00
0000
7E00
0000
7E00
0000
7E00
0000
0000
0000
ENDCHAR
STARTCHAR uniA97D
ENCODING 43389
SWIDTH 992 0
DWIDTH 16 0
BBX 16 16 0 0
BITMAP
0000
0000
0000
0000
7E00
0000
7E00
0000
7E00
0000
7E00
0000
7E00
0000
0000
0000
ENDCHAR
STARTCHAR uniA97E
ENCODING 43390
SWIDTH 992 0
DWIDTH 16 0
BBX 16 16 0 0
BITMAP
0000
0000
0000
0000
7E00
0000
7E00
0000
7E00
0000
7E00
0000
7E00
0000
0000
0000
ENDCHAR
STARTCHAR uniA97F
ENCODING 43391
SWIDTH 992 0
DWIDTH 16 0
BBX 16 16 0 0
BITMAP
0000
0000
0000
0000
7E00
0000
7E00
0000
7E00
0000
7E00
0000
7E00
0000
0000
0000
ENDCHAR
STARTCHAR uniD7B0
ENCODING 55216
SWIDTH 992 0
DWIDTH 16 0
BBX 16 16 0 0
BITMAP
0000
0000
0000
0000
7E00
0000
7E00
0000
7E00
0000
7E00
0000
7E00
0000
0000
0000
ENDCHAR
STARTCHAR uniD7B1
ENCODING 55217
SWIDTH 992 0
DWIDTH 16 0
BBX 16 16 0 0
BITMAP
0000
0000
0000
0000
7E00
0000
7E00
0000
7E00
0000
7E00
0000
7E00
0000
0000
0000
ENDCHAR
STARTCHAR uniD7B2
ENCODING 55218
SWIDTH 992 0
DWIDTH 16 0
BBX 16 16 0 0
BITMAP
0000
0000
0000
0000
7E00
0000
7E00
0000
7E00
0000
7E00
0000
7E00
0000
0000
0000
ENDCHAR
STARTCHAR uniD7B3
ENCODING 55219
SWIDTH 992 0
DWIDTH 16 0
BBX 16 16 0 0
BITMAP
0000
0000
0000
0000
7E00
0000
7E00
0000
7E00
0000
7E00
0000
7E00
0000
0000
0000
ENDCHAR
STARTCHAR uniD7B4
ENCODING 55220
SWIDTH 992 0
DWIDTH 16 0
BBX 16 16 0 0
BITMAP
0000
0000
0000
0000
7E00
0000
7E00
0000
7E00
0000
7E00
0000
7E00
0000
0000
0000
ENDCHAR
STARTCHAR uniD7B5
ENCODING 55221
SWIDTH 992 0
DWIDTH 16 0
BBX 16 16 0 0
BITMAP
0000
0000
0000
0000
7E00
0000
7E00
0000
7E00
0000
7E00
0000
7E00
0000
0000
0000
ENDCHAR
STARTCHAR uniD7B6
ENCODING 55222
SWIDTH 992 0
DWIDTH 16 0
BBX 16 16 0 0
BITMAP
0000
0000
0000
0000
7E00
0000
7E00
0000
7E00
0000
7E00
0000
7E00
0000
0000
0000
ENDCHAR
STARTCHAR uniD7B7
ENCODING 55223
SWIDTH 992 0
DWIDTH 16 0
BBX 16 16 0 0
BITMAP
0000
0000
0000
0000
7E00
0000
7E00
0000
7E00
0000
7E00
0000
7E00
0000
0000
0000
ENDCHAR
STARTCHAR uniD7B8
ENCODING 55224
SWIDTH 992 0
DWIDTH 16 0
BBX 16 16 0 0
BITMAP
0000
0000
0000
0000
7E00
0000
7E00
0000
7E00
0000
7E00
0000
7E00
0000
0000
0000
ENDCHAR
STARTCHAR uniD7B9
ENCODING 55225
SWIDTH 992 0
DWIDTH 16 0
BBX 16 16 0 0
BITMAP
0000
0000
0000
0000
7E00
0000
7E00
0000
7E00
0000
7E00
0000
7E00
0000
0000
0000
ENDCHAR
STARTCHAR uniD7BA
ENCODING 55226
SWIDTH 992 0
DWIDTH 16 0
BBX 16 16 0 0
BITMAP
0000
0000
0000
0000
7E00
0000
7E00
0000
7E00
0000
7E00
0000
7E00
0000
0000
0000
ENDCHAR
STARTCHAR uniD7BB
ENCODING 55227
SWIDTH 992 0
DWIDTH 16 0
BBX 16 16 0 0
BITMAP
0000
0000
0000
0000
7E00
0000
7E00
0000
7E00
0000
7E00
0000
7E00
0000
0000
0000
ENDCHAR
STARTCHAR uniD7BC
ENCODING 55228
SWIDTH 992 0
DWIDTH 16 0
BBX 16 16 0 0
BITMAP
0000
0000
0000
0000
7E00
0000
7E00
0000
7E00
0000
7E00
0000
7E00
0000
0000
0000
ENDCHAR
STARTCHAR uniD7BD
ENCODING 55229
SWIDTH 992 0
DWIDTH 16 0
BBX 16 16 0 0
BITMAP
0000
0000
0000
0000
7E00
0000
7E00
0000
7E00
0000
7E00
0000
7E00
0000
0000
0000
ENDCHAR
STARTCHAR uniD7BE
ENCODING 55230
SWIDTH 992 0
DWIDTH 16 0
BBX 16 16 0 0
BITMAP
0000
0000
0000
0000
7E00
0000
7E00
0000
7E00
0000
7E00
0000
7E00
0000
0000
0000
ENDCHAR
STARTCHAR uniD7BF
ENCODING 55231
SWIDTH 992 0
DWIDTH 16 0
BBX 16 16 0 0
BITMAP
0000
0000
0000
0000
7E00
0000
7E00
0000
7E00
0000
7E00
0000
7E00
0000
0000
0000
ENDCHAR
STARTCHAR uniD7C0
ENCODING 55232
SWIDTH 992 0
DWIDTH 16 0
BBX 16 16 0 0
BITMAP
0000
0000
0000
0000
7E00
0000
7E00
0000
7E00
0000
7E00
0000
7E00
0000
0000
0000
ENDCHAR
STARTCHAR uniD7C1
ENCODING 55233
SWIDTH 992 0
DWIDTH 16 0
BBX 16 16 0 0
BITMAP
0000
0000
0000
0000
7E00
0000
7E00
0000
7E00
0000
7E00
0000
7E00
0000
0000
0000
ENDCHAR
STARTCHAR uniD7C2
ENCODING 55234
SWIDTH 992 0
DWIDTH 16 0
BBX 16 16 0 0
BITMAP
0000
0000
0000
0000
7E00
0000
7E00
0000
7E00
0000
7E00
0000
7E00
0000
0000
0000
ENDCHAR
STARTCHAR uniD7C3
ENCODING 55235
SWIDTH 992 0
DWIDTH 16 0
BBX 16 16 0 0
BITMAP
0000
0000
0000
0000
7E00
0000
7E00
0000
7E00
0000
7E00
0000
7E00
0000
0000
0000
ENDCHAR
STARTCHAR uniD7C4
ENCODING 55236
SWIDTH 992 0
DWIDTH 16 0
BBX 16 16 0 0
BITMAP
0000
0000
0000
0000
7E00
0000
7E00
0000
7E00
0000
7E00
0000
7E00
0000
0000
0000
ENDCHAR
STARTCHAR uniD7C5
ENCODING 55237
SWIDTH 992 0
DWIDTH 16 0
BBX 16 16 0 0
BITMAP
0000
0000
0000
0000
7E00
0000
7E00
0000
7E00
0000
7E00
0000
7E00
0000
0000
0000
ENDCHAR
STARTCHAR uniD7C6
ENCODING 55238
SWIDTH 992 0
DWIDTH 16 0
BBX 16 16 0 0
BITMAP
0000
0000
0000
0000
7E00
0000
7E00
0000
7E00
0000
7E00
0000
7E00
0000
0000
0000
ENDCHAR
STARTCHAR uniD7C7
ENCODING 55239
SWIDTH 992 0
DWIDTH 16 0
BBX 16 16 0 0
BITMAP
0000
0000
0000
0000
7E00
0000
7E00
0000
7E00
0000
7E00
0000
7E00
0000
0000
0000
ENDCHAR
STARTCHAR uniD7C8
ENCODING 55240
SWIDTH 992 0
DWIDTH 16 0
BBX 16 16 0 0
BITMAP
0000
0000
0000
0000
7E00
0000
7E00
0000
7E00
0000
7E00
0000
7E00
0000
0000
0000
ENDCHAR
STARTCHAR uniD7C9
ENCODING 55241
SWIDTH 992 0
DWIDTH 16 0
BBX 16 16 0 0
BITMAP
0000
0000
0000
0000
7E00
0000
7E00
0000
7E00
0000
7E00
0000
7E00
0000
0000
0000
ENDCHAR
STARTCHAR uniD7CA
ENCODING 55242
SWIDTH 992 0
DWIDTH 16 0
BBX 16 16 0 0
BITMAP
0000
0000
0000
0000
7E00
0000
7E00
0000
7E00
0000
7E00
0000
7E00
0000
0000
0000
ENDCHAR
STARTCHAR uniD7CB
ENCODING 55243
SWIDTH 992 0
DWIDTH 16 0
BBX 16 16 0 0
BITMAP
0000
0000
0000
0000
7E00
0000
7E00
0000
7E00
0000
7E00
0000
7E00
0000
0000
0000
ENDCHAR
STARTCHAR uniD7CC
ENCODING 55244
SWIDTH 992 0
DWIDTH 16 0
BBX 16 16 0 0
BITMAP
0000
0000
0000
0000
7E00
0000
7E00
0000
7E00
0000
7E00
0000
7E00
0000
0000
0000
ENDCHAR
STARTCHAR uniD7CD
ENCODING 55245
SWIDTH 992 0
DWIDTH 16 0
BBX 16 16 0 0
BITMAP
0000
0000
0000
0000
7E00
0000
7E00
0000
7E00
0000
7E00
0000
7E00
0000
0000
0000
ENDCHAR
STARTCHAR uniD7CE
ENCODING 55246
SWIDTH 992 0
DWIDTH 16 0
BBX 16 16 0 0
BITMAP
0000
0000
0000
0000
7E00
0000
7E00
0000
7E00
0000
7E00
0000
7E00
0000
0000
0000
ENDCHAR
STARTCHAR uniD7CF
ENCODING 55247
SWIDTH 992 0
DWIDTH 16 0
BBX 16 16 0 0
BITMAP
0000
0000
0000
0000
7E00
0000
7E00
0000
7E00
0000
7E00
0000
7E00
0000
0000
0000
ENDCHAR
STARTCHAR uniD7D0
ENCODING 55248
SWIDTH 992 0
DWIDTH 16 0
BBX 16 16 0 0
BITMAP
0000
0000
0000
0000
7E00
0000
7E00
0000
7E00
0000
7E00
0000
7E00
0000
0000
0000
ENDCHAR
STARTCHAR uniD7D1
ENCODING 55249
SWIDTH 992 0
DWIDTH 16 0
BBX 16 16 0 0
BITMAP
0000
0000
0000
0000
7E00
0000
7E00
0000
7E00
0000
7E00
0000
7E00
0000
0000
0000
ENDCHAR
STARTCHAR uniD7D2
ENCODING 55250
SWIDTH 992 0
DWIDTH 16 0
BBX 16 16 0 0
BITMAP
0000
0000
0000
0000
7E00
0000
7E00
0000
7E00
0000
7E00
0000
7E00
0000
0000
0000
ENDCHAR
STARTCHAR uniD7D3
ENCODING 55251
SWIDTH 992 0
DWIDTH 16 0
BBX 16 16 0 0
BITMAP
0000
0000
0000
0000
7E00
0000
7E00
0000
7E00
0000
7E00
0000
7E00
0000
0000
0000
ENDCHAR
STARTCHAR uniD7D4
ENCODING 55252
SWIDTH 992 0
DWIDTH 16 0
BBX 16 16 0 0
BITMAP
0000
0000
0000
0000
7E00
0000
7E00
0000
7E00
0000
7E00
0000
7E00
0000
0000
0000
ENDCHAR
STARTCHAR uniD7D5
ENCODING 55253
SWIDTH 992 0
DWIDTH 16 0
BBX 16 16 0 0
BITMAP
0000
0000
0000
0000
7E00
0000
7E00
0000
7E00
0000
7E00
0000
7E00
0000
0000
0000
ENDCHAR
STARTCHAR uniD7D6
ENCODING 55254
SWIDTH 992 0
DWIDTH 16 0
BBX 16 16 0 0
BITMAP
0000
0000
0000
0000
7E00
0000
7E00
0000
7E00
0000
7E00
0000
7E00
0000
0000
0000
ENDCHAR
STARTCHAR uniD7D7
ENCODING 55255
SWIDTH 992 0
DWIDTH 16 0
BBX 16 16 0 0
BITMAP
0000
0000
0000
0000
7E00
0000
7E00
0000
7E00
0000
7E00
0000
7E00
0000
0000
0000
ENDCHAR
STARTCHAR uniD7D8
ENCODING 55256
SWIDTH 992 0
DWIDTH 16 0
BBX 16 16 0 0
BITMAP
0000
0000
0000
0000
7E00
0000
7E00
0000
7E00
0000
7E00
0000
7E00
0000
0000
0000
ENDCHAR
STARTCHAR uniD7D9
ENCODING 55257
SWIDTH 992 0
DWIDTH 16 0
BBX 16 16 0 0
BITMAP
0000
0000
0000
0000
7E00
0000
7E00
0000
7E00
0000
7E00
0000
7E00
0000
0000
0000
ENDCHAR
STARTCHAR uniD7DA
ENCODING 55258
SWIDTH 992 0
DWIDTH 16 0
BBX 16 16 0 0
BITMAP
0000
0000
0000
0000
7E00
0000
7E00
0000
7E00
0000
7E00
0000
7E00
0000
0000
0000
ENDCHAR
STARTCHAR uniD7DB
ENCODING 55259
SWIDTH 992 0
DWIDTH 16 0
BBX 16 16 0 0
BITMAP
0000
0000
0000
0000
7E00
0000
7E00
0000
7E00
0000
7E00
0000
7E00
0000
0000
0000
ENDCHAR
STARTCHAR uniD7DC
ENCODING 55260
SWIDTH 992 0
DWIDTH 16 0
BBX 16 16 0 0
BITMAP
0000
0000
0000
0000
7E00
0000
7E00
0000
7E00
0000
7E00
0000
7E00
0000
0000
0000
ENDCHAR
STARTCHAR uniD7DD
ENCODING 55261
SWIDTH 992 0
DWIDTH 16 0
BBX 16 16 0 0
BITMAP
0000
0000
0000
0000
7E00
0000
7E00
0000
7E00
0000
7E00
0000
7E00
0000
0000
0000
ENDCHAR
STARTCHAR uniD7DE
ENCODING 55262
SWIDTH 992 0
DWIDTH 16 0
BBX 16 16 0 0
BITMAP
0000
0000
0000
0000
7E00
0000
7E00
0000
7E00
0000
7E00
0000
7E00
0000
0000
0000
ENDCHAR
STARTCHAR uniD7DF
ENCODING 55263
SWIDTH 992 0
DWIDTH 16 0
BBX 16 16 0 0
BITMAP
0000
0000
0000
0000
7E00
0000
7E00
0000
7E00
0000
7E00
0000
7E00
0000
0000
0000
ENDCHAR
STARTCHAR uniD7E0
ENCODING 55264
SWIDTH 992 0
DWIDTH 16 0
BBX 16 16 0 0
BITMAP
0000
0000
0000
0000
7E00
0000
7E00
0000
7E00
0000
7E00
0000
7E00
0000
0000
0000
ENDCHAR
STARTCHAR uniD7E1
ENCODING 55265
SWIDTH 992 0
DWIDTH 16 0
BBX 16 16 0 0
BITMAP
0000
0000
0000
0000
7E00
0000
7E00
0000
7E00
0000
7E00
0000
7E00
0000
0000
0000
ENDCHAR
STARTCHAR uniD7E2
ENCODING 55266
SWIDTH 992 0
DWIDTH 16 0
BBX 16 16 0 0
BITMAP
0000
0000
0000
0000
7E00
0000
7E00
0000
7E00
0000
7E00
0000
7E00
0000
0000
0000
ENDCHAR
STARTCHAR uniD7E3
ENCODING 55267
SWIDTH 992 0
DWIDTH 16 0
BBX 16 16 0 0
BITMAP
0000
0000
0000
0000
7E00
0000
7E00
0000
7E00
0000
7E00
0000
7E00
0000
0000
0000
ENDCHAR
STARTCHAR uniD7E4
ENCODING 55268
SWIDTH 992 0
DWIDTH 16 0
BBX 16 16 0 0
BITMAP
0000
0000
0000
0000
7E00
0000
7E00
0000
7E00
0000
7E00
0000
7E00
0000
0000
0000
ENDCHAR
STARTCHAR uniD7E5
ENCODING 55269
SWIDTH 992 0
DWIDTH 16 0
BBX 16 16 0 0
BITMAP
0000
0000
0000
0000
7E00
0000
7E00
0000
7E00
0000
7E00
0000
7E00
0000
0000
0000
ENDCHAR
STARTCHAR uniD7E6
ENCODING 55270
SWIDTH 992 0
DWIDTH 16 0
BBX 16 16 0 0
BITMAP
0000
0000
0000
0000
7E00
0000
7E00
0000
7E00
0000
7E00
0000
7E00
0000
0000
0000
ENDCHAR
STARTCHAR uniD7E7
ENCODING 55271
SWIDTH 992 0
DWIDTH 16 0
BBX 16 16 0 0
BITMAP
0000
0000
0000
0000
7E00
0000
7E00
0000
7E00
0000
7E00
0000
7E00
0000
0000
0000
ENDCHAR
STARTCHAR uniD7E8
ENCODING 55272
SWIDTH 992 0
DWIDTH 16 0
BBX 16 16 0 0
BITMAP
0000
0000
0000
0000
7E00
0000
7E00
0000
7E00
0000
7E00
0000
7E00
0000
0000
0000
ENDCHAR
STARTCHAR uniD7E9
ENCODING 55273
SWIDTH 992 0
DWIDTH 16 0
BBX 16 16 0 0
BITMAP
0000
0000
0000
0000
7E00
0000
7E00
0000
7E00
0000
7E00
0000
7E00
0000
0000
0000
ENDCHAR
STARTCHAR uniD7EA
ENCODING 55274
SWIDTH 992 0
DWIDTH 16 0
BBX 16 16 0 0
BITMAP
0000
0000
0000
0000
7E00
0000
7E00
0000
7E00
0000
7E00
0000
7E00
0000
0000
0000
ENDCHAR
STARTCHAR uniD7EB
ENCODING 55275
SWIDTH 992 0
DWIDTH 16 0
BBX 16 16 0 0
BITMAP
0000
0000
0000
0000
7E00
0000
7E00
0000
7E00
0000
7E00
0000
7E00
0000
0000
0000
ENDCHAR
STARTCHAR uniD7EC
ENCODING 55276
SWIDTH 992 0
DWIDTH 16 0
BBX 16 16 0 0
BITMAP
0000
0000
0000
0000
7E00
0000
7E00
0000
7E00
0000
7E00
0000
7E00
0000
0000
0000
ENDCHAR
STARTCHAR uniD7ED
ENCODING 55277
SWIDTH 992 0
DWIDTH 16 0
BBX 16 16 0 0
BITMAP
0000
0000
0000
0000
7E00
0000
7E00
0000
7E00
0000
7E00
0000
7E00
0000
0000
0000
ENDCHAR
STARTCHAR uniD7EE
ENCODING 55278
SWIDTH 992 0
DWIDTH 16 0
BBX 16 16 0 0
BITMAP
0000
0000
0000
0000
7E00
0000
7E00
0000
7E00
0000
7E00
0000
7E00
0000
0000
0000
ENDCHAR
STARTCHAR uniD7EF
ENCODING 55279
SWIDTH 992 0
DWIDTH 16 0
BBX 16 16 0 0
BITMAP
0000
0000
0000
0000
7E00
0000
7E00
0000
7E00
0000
7E00
0000
7E00
0000
0000
0000
ENDCHAR
STARTCHAR uniD7F0
ENCODING 55280
SWIDTH 992 0
DWIDTH 16 0
BBX 16 16 0 0
BITMAP
0000
0000
0000
0000
7E00
0000
7E00
0000
7E00
0000
7E00
0000
7E00
0000
0000
0000
ENDCHAR
STARTCHAR uniD7F1
ENCODING 55281
SWIDTH 992 0
DWIDTH 16 0
BBX 16 16 0 0
BITMAP
0000
0000
0000
0000
7E00
0000
7E00
0000
7E00
0000
7E00
0000
7E00
0000
0000
0000
ENDCHAR
STARTCHAR uniD7F2
ENCODING 55282
SWIDTH 992 0
DWIDTH 16 0
BBX 16 16 0 0
BITMAP
0000
0000
0000
0000
7E00
0000
7E00
0000
7E00
0000
7E00
0000
7E00
0000
0000
0000
ENDCHAR
STARTCHAR uniD7F3
ENCODING 55283
SWIDTH 992 0
DWIDTH 16 0
BBX 16 16 0 0
BITMAP
0000
0000
0000
0000
7E00
0000
7E00
0000
7E00
0000
7E00
0000
7E00
0000
0000
0000
ENDCHAR
STARTCHAR uniD7F4
ENCODING 55284
SWIDTH 992 0
DWIDTH 16 0
BBX 16 16 0 0
BITMAP
0000
0000
0000
0000
7E00
0000
7E00
0000
7E00
0000
7E00
0000
7E00
0000
0000
0000
ENDCHAR
STARTCHAR uniD7F5
ENCODING 55285
SWIDTH 992 0
DWIDTH 16 0
BBX 16 16 0 0
BITMAP
0000
0000
0000
0000
7E00
0000
7E00
0000
7E00
0000
7E00
0000
7E00
0000
0000
0000
ENDCHAR
STARTCHAR uniD7F6
ENCODING 55286
SWIDTH 992 0
DWIDTH 16 0
BBX 16 16 0 0
BITMAP
0000
0000
0000
0000
7E00
0000
7E00
0000
7E00
0000
7E00
0000
7E00
0000
0000
0000
ENDCHAR
STARTCHAR uniD7F7
ENCODING 55287
SWIDTH 992 0
DWIDTH 16 0
BBX 16 16 0 0
BITMAP
0000
0000
0000
0000
7E00
0000
7E00
0000
7E00
0000
7E00
0000
7E00
0000
0000
0000
ENDCHAR
STARTCHAR uniD7F8
ENCODING 55288
SWIDTH 992 0
DWIDTH 16 0
BBX 16 16 0 0
BITMAP
0000
0000
0000
0000
7E00
0000
7E00
0000
7E00
0000
7E00
0000
7E00
0000
0000
0000
ENDCHAR
STARTCHAR uniD7F9
ENCODING 55289
SWIDTH 992 0
DWIDTH 16 0
BBX 16 16 0 0
BITMAP
0000
0000
0000
0000
7E00
0000
7E00
0000
7E00
0000
7E00
0000
7E00
0000
0000
0000
ENDCHAR
STARTCHAR uniD7FA
ENCODING 55290
SWIDTH 992 0
DWIDTH 16 0
BBX 16 16 0 0
BITMAP
0000
0000
0000
0000
7E00
0000
7E00
0000
7E00
0000
7E00
0000
7E00
0000
0000
0000
ENDCHAR
STARTCHAR uniD7FB
ENCODING 55291
SWIDTH 992 0
DWIDTH 16 0
BBX 16 16 0 0
BITMAP
0000
0000
0000
0000
7E00
0000
7E00
0000
7E00
0000
7E00
0000
7E00
0000
0000
0000
ENDCHAR
STARTCHAR uniD7FC
ENCODING 55292
SWIDTH 992 0
DWIDTH 16 0
BBX 16 16 0 0
BITMAP
0000
0000
0000
0000
7E00
0000
7E00
0000
7E00
0000
7E00
0000
7E00
0000
0000
0000
ENDCHAR
STARTCHAR uniD7FD
ENCODING 55293
SWIDTH 992 0
DWIDTH 16 0
BBX 16 16 0 0
BITMAP
0000
0000
0000
0000
7E00
0000
7E00
0000
7E00
0000
7E00
0000
7E00
0000
0000
0000
ENDCHAR
STARTCHAR uniD7FE
ENCODING 55294
SWIDTH 992 0
DWIDTH 16 0
BBX 16 16 0 0
BITMAP
0000
0000
0000
0000
7E00
0000
7E00
0000
7E00
0000
7E00
0000
7E00
0000
0000
0000
ENDCHAR
STARTCHAR uniD7FF
ENCODING 55295
SWIDTH 992 0
DWIDTH 16 0
BBX 16 16 0 0
BITMAP
0000
0000
0000
0000
7E00
0000
7E00
0000
7E00
0000
7E00
0000
7E00
0000
0000
0000
ENDCHAR
ENDFONT
